<?xml version="1.0" standalone="no"?>
<!DOCTYPE svg PUBLIC "-//W3C//DTD SVG 1.1//EN" "http://www.w3.org/Graphics/SVG/1.1/DTD/svg11.dtd" >
<svg xmlns="http://www.w3.org/2000/svg" xmlns:xlink="http://www.w3.org/1999/xlink" version="1.1">
<metadata>
Created by FontForge 20170731 at Mon Mar 12 17:50:10 2018
 By Aleksey,,,
Copyright (c) 2017 by Deepak Singh Dogra. All rights reserved.
</metadata>
<defs>
<font id="Agenor-Black" horiz-adv-x="1622" >
  <font-face 
    font-family="Agenor Black"
    font-weight="400"
    font-stretch="normal"
    units-per-em="2048"
    panose-1="0 0 0 0 0 0 0 0 0 0"
    ascent="1638"
    descent="-410"
    x-height="1499"
    cap-height="1499"
    bbox="-135 -741 2998 2071"
    underline-thickness="0"
    underline-position="0"
    unicode-range="U+000D-2265"
  />
<missing-glyph horiz-adv-x="1058" 
 />
    <glyph glyph-name=".notdef" horiz-adv-x="1058" 
 />
    <glyph glyph-name="glyph1" horiz-adv-x="0" 
 />
    <glyph glyph-name="uni000D" unicode="&#xd;" horiz-adv-x="727" 
 />
    <glyph glyph-name="glyph3" horiz-adv-x="0" 
 />
    <glyph glyph-name="glyph3" horiz-adv-x="0" 
 />
    <glyph glyph-name="space" unicode=" " horiz-adv-x="614" 
 />
    <glyph glyph-name="exclam" unicode="!" horiz-adv-x="620" 
d="M113 494l-43 794q-6 100 45 154.5t151 54.5h260l-47 -807q-12 -197 -207 -196h-159zM291 -14q-94 0 -159.5 63.5t-65.5 157.5q0 90 65.5 152.5t159.5 62.5t161.5 -62.5t67.5 -152.5q0 -94 -66.5 -157.5t-162.5 -63.5z" />
    <glyph glyph-name="quotedbl" unicode="&#x22;" horiz-adv-x="1110" 
d="M137 985l-33 303q-10 102 40.5 157.5t152.5 55.5h192l-30 -323q-18 -193 -211 -193h-111zM623 985l-27 305q-8 102 42 156.5t153 54.5h192l-35 -325q-23 -190 -213 -191h-112z" />
    <glyph glyph-name="numbersign" unicode="#" horiz-adv-x="1814" 
d="M135 0l137 342h-254l76 197q59 160 234 159h90l43 123h-254l82 195q66 156 235 155h84l72 172q63 158 233 158h222l-136 -330h144l74 175q66 156 235 155h221l-137 -330h262l-82 -194q-66 -156 -235 -156h-90l-48 -123h263l-80 -198q-63 -158 -234 -158h-92l-76 -184
q-63 -158 -233 -158h-219l139 342h-152l-71 -182q-63 -160 -234 -160h-219zM807 698h143l47 123h-145z" />
    <glyph glyph-name="dollar" unicode="$" horiz-adv-x="1441" 
d="M647 -193q-98 0 -150.5 52.5t-52.5 150.5v2q-199 55 -411 228l108 157q100 145 279 52q178 -92 313 -93q76 0 119 28t43 73q0 68 -193 102l-30 6q-53 8 -73.5 11.5t-80 15.5t-90.5 23.5t-86 32t-86 44t-71 58t-61.5 74.5t-36.5 94.5t-15 115.5q0 188 103.5 299t268.5 156
v217h254q98 0 150.5 -52t52.5 -151v-10q227 -53 420 -221l-109 -146q-104 -141 -280 -53q-131 63 -256 64q-145 0 -146 -93q0 -43 49.5 -61t137.5 -31q86 -12 137 -20t127 -26.5t122 -39t99 -56.5t82 -82t49.5 -111.5t20.5 -145.5q0 -205 -121 -328t-332 -155v-181h-254z
" />
    <glyph glyph-name="percent" unicode="%" horiz-adv-x="2109" 
d="M467 614q-182 0 -304 127t-122 319.5t122 320.5t304 128q188 0 310 -127t122 -321q0 -190 -124 -318.5t-308 -128.5zM537 -2l643 1356q70 150 237 149h182l-643 -1356q-70 -150 -237 -149h-182zM471 913q70 0 70 148q0 145 -70 145t-70 -145q0 -148 70 -148zM1663 -25
q-182 0 -304 127t-122 319.5t122 320.5t304 128q188 0 310 -127t122 -321q0 -190 -124 -318.5t-308 -128.5zM1667 274q70 0 70 148q0 145 -70 145t-70 -145q0 -148 70 -148z" />
    <glyph glyph-name="ampersand" unicode="&#x26;" horiz-adv-x="1452" 
d="M1153 -39l-209 178q-92 -88 -189.5 -131t-232.5 -43q-186 0 -316 102.5t-138 282.5q-10 256 264 447q-66 66 -98.5 167t-22.5 191q18 162 136 264.5t298 102.5q207 0 323.5 -116t110.5 -292q-8 -188 -241 -364l143 -136l33 45q117 160 278 70l92 -51q-55 -111 -194 -291
l47 -43q152 -139 10 -287zM623 1004q106 59 102 139q-2 33 -23.5 58.5t-64.5 25.5q-37 0 -65.5 -30t-20.5 -81q11 -55 72 -112zM473 340q59 -55 129 -39t109 74l-191 180q-55 -31 -72.5 -94.5t25.5 -120.5z" />
    <glyph glyph-name="quotesingle" unicode="'" horiz-adv-x="598" 
d="M123 985l-27 305q-8 102 42 156.5t153 54.5h192l-32 -323q-18 -193 -211 -193h-117z" />
    <glyph glyph-name="parenleft" unicode="(" horiz-adv-x="837" 
d="M625 -248q-285 152 -439.5 405t-154.5 584q0 330 152.5 589t437.5 409l79 -127q47 -86 34 -146.5t-83 -134.5q-205 -211 -205 -590q0 -344 216 -575q133 -143 45 -285z" />
    <glyph glyph-name="parenright" unicode=")" horiz-adv-x="837" 
d="M213 -248l-90 144q-80 129 53 270q213 229 213 575q0 381 -203 590q-70 72 -83 134.5t34 146.5l80 127q285 -150 437.5 -409t152.5 -589q0 -332 -154.5 -584.5t-439.5 -404.5z" />
    <glyph glyph-name="asterisk" unicode="*" horiz-adv-x="921" 
d="M578 672l-121 166l-41 -56q-80 -109 -189 -28l-147 106l129 158l-64 20q-131 45 -86 172l54 154l192 -64v60q0 135 135 135h176v-195l62 21q125 43 170 -84l53 -154l-192 -63l41 -51q86 -109 -25 -191z" />
    <glyph glyph-name="plus" unicode="+" horiz-adv-x="1202" 
d="M586 225q-98 0 -150.5 52.5t-52.5 150.5v135h-358v203q0 98 52 150.5t150 52.5h156v336h195q98 0 150 -52.5t52 -150.5v-133h363v-203q0 -98 -52.5 -150.5t-150.5 -52.5h-160v-338h-194z" />
    <glyph glyph-name="comma" unicode="," horiz-adv-x="538" 
d="M133 -272l-14 18q-45 61 14 127q55 59 66 125q-63 2 -115.5 63.5t-54.5 124.5q-6 92 60.5 159t160.5 67q109 0 174 -71t65 -179q0 -125 -97 -253t-259 -181z" />
    <glyph glyph-name="hyphen" unicode="-" horiz-adv-x="866" 
d="M104 590v162q0 98 52.5 150t150.5 52h438v-161q0 -98 -52 -150.5t-150 -52.5h-439z" />
    <glyph glyph-name="period" unicode="." horiz-adv-x="522" 
d="M254 -14q-94 0 -159.5 63.5t-65.5 157.5q0 90 65.5 152.5t159.5 62.5q96 0 162.5 -62.5t66.5 -152.5q0 -94 -66.5 -157.5t-162.5 -63.5z" />
    <glyph glyph-name="slash" unicode="/" horiz-adv-x="1150" 
d="M-135 -246l840 1778q72 150 237 149h242l-838 -1777q-72 -150 -237 -150h-244z" />
    <glyph glyph-name="zero" unicode="0" horiz-adv-x="1585" 
d="M780 -27q-309 0 -508.5 229.5t-199.5 545.5q0 342 197.5 558t510.5 216q303 0 503 -219.5t200 -554.5q0 -311 -201 -543t-502 -232zM782 354q119 0 178.5 109.5t59.5 279.5t-59.5 280t-178.5 110q-115 0 -176 -111t-61 -279t61 -278.5t176 -110.5z" />
    <glyph glyph-name="one" unicode="1" horiz-adv-x="942" 
d="M586 0q-98 0 -150.5 52t-52.5 151v639q-137 -143 -279 14l-116 129l530 514h324v-1499h-256z" />
    <glyph glyph-name="two" unicode="2" horiz-adv-x="1361" 
d="M117 0v356l524 432q145 121 145 232q0 43 -31.5 79t-88.5 36q-72 0 -125 -78q-57 -88 -109.5 -120t-138.5 -9l-223 57q18 66 42.5 128.5t75 140t111.5 134t157.5 95.5t209.5 39q150 0 263 -44t177.5 -119t95.5 -161t31 -182q0 -66 -16.5 -127.5t-53.5 -116.5t-68.5 -96
t-94 -92.5t-95.5 -77t-104.5 -74.5t-91.5 -65h338q98 0 150 -52.5t52 -150.5v-164h-1132z" />
    <glyph glyph-name="three" unicode="3" horiz-adv-x="1271" 
d="M614 -25q-131 0 -241.5 54.5t-178 136.5t-107.5 166t-48 155l186 35q20 4 40 4h33t30.5 -9t25.5 -12t26.5 -20.5t24 -21.5t29 -28.5t27.5 -28.5q51 -51 153 -52q57 0 92 33t35 76q0 72 -59 107.5t-203 31.5v96q0 51 10.5 85t39 56.5t52 33t76.5 30.5q84 31 84 125
q0 51 -33.5 84t-93.5 33q-92 0 -149 -58q-6 -6 -32.5 -33.5t-33 -32.5t-28 -23.5t-31.5 -20.5t-30.5 -9t-40 -5t-44.5 8l-186 43q8 70 48 152.5t107.5 164.5t178 137.5t241.5 55.5q147 0 260 -42t175.5 -112t92 -149.5t29.5 -165.5q0 -121 -61 -207t-139 -98
q82 -20 141 -109.5t59 -214.5q0 -205 -159.5 -328t-397.5 -123z" />
    <glyph glyph-name="four" unicode="4" horiz-adv-x="1423" 
d="M950 0q-98 0 -150 52t-52 151v88h-687v342l773 866h360v-842q74 0 117 -46t43 -117v-203h-160v-291h-244zM532 657h216v242z" />
    <glyph glyph-name="five" unicode="5" horiz-adv-x="1357" 
d="M666 -25q-352 0 -598 308l116 118q63 66 132 67t147 -50q88 -51 182 -51q86 0 132 47t46 123q0 72 -47 118.5t-123 46.5q-133 0 -184 -104l-356 104l151 797h914v-162q0 -98 -52.5 -150t-150.5 -52h-365q-43 -172 -51 -211q16 20 46 40.5t93.5 43t137.5 22.5
q223 0 328.5 -137t105.5 -361q0 -254 -174 -405.5t-430 -151.5z" />
    <glyph glyph-name="six" unicode="6" horiz-adv-x="1376" 
d="M678 -25q-291 0 -448.5 163t-157.5 382q0 121 25.5 209t88.5 205q37 68 314 440q92 125 248 125h387l-355 -471q217 25 360.5 -124.5t143.5 -373.5q0 -279 -168 -417t-438 -138zM680 348q66 0 111 45t45 127q0 68 -45.5 118t-110.5 50q-61 0 -107.5 -48t-46.5 -120
q0 -82 46.5 -127t107.5 -45z" />
    <glyph glyph-name="seven" unicode="7" horiz-adv-x="1273" 
d="M41 0l684 1122h-463q-98 0 -150.5 52.5t-52.5 150.5v174h1166v-364l-596 -998q-84 -137 -242 -137h-346z" />
    <glyph glyph-name="eight" unicode="8" horiz-adv-x="1314" 
d="M651 -25q-266 0 -432 107.5t-166 339.5q0 166 83 256t177 115q-31 8 -61.5 25.5t-66 49t-57.5 90t-22 134.5q0 178 161 303t384 125q225 0 387 -125t162 -303q0 -227 -201 -306q90 -16 170 -106t80 -258q0 -231 -165 -339t-433 -108zM651 928q61 0 92 30.5t31 77.5
q0 53 -38 82t-85 29t-85 -28.5t-38 -82.5q0 -45 33 -76.5t90 -31.5zM651.5 346q65.5 0 108.5 36t43 99q0 59 -44 97t-107.5 38t-107.5 -37.5t-44 -97.5q0 -63 43 -99t108.5 -36z" />
    <glyph glyph-name="nine" unicode="9" horiz-adv-x="1392" 
d="M248 0l354 471q-217 -25 -360.5 124.5t-143.5 373.5q0 279 168 417t439 138q291 0 448.5 -163t157.5 -382q0 -121 -25.5 -209t-89.5 -205q-37 -68 -313 -440q-92 -125 -248 -125h-387zM702 811q61 0 107.5 48t46.5 120q0 82 -46 127t-108 45q-66 0 -110.5 -45t-44.5 -127
q0 -68 44.5 -118t110.5 -50z" />
    <glyph glyph-name="colon" unicode=":" horiz-adv-x="524" 
d="M254 604q-94 0 -159.5 63.5t-65.5 157.5q0 90 65.5 152.5t159.5 62.5q96 0 162.5 -62.5t66.5 -152.5q0 -94 -66.5 -157.5t-162.5 -63.5zM254 -14q-94 0 -159.5 63.5t-65.5 157.5q0 90 65.5 152.5t159.5 62.5q96 0 162.5 -62.5t66.5 -152.5q0 -94 -66.5 -157.5
t-162.5 -63.5z" />
    <glyph glyph-name="semicolon" unicode=";" horiz-adv-x="526" 
d="M254 604q-94 0 -159.5 63.5t-65.5 157.5q0 90 65.5 152.5t159.5 62.5q96 0 162.5 -62.5t66.5 -152.5q0 -94 -66.5 -157.5t-162.5 -63.5zM133 -272l-14 18q-45 61 14 127q55 59 66 125q-63 2 -115.5 63.5t-54.5 124.5q-6 92 60.5 159t160.5 67q109 0 174 -71t65 -179
q0 -125 -97 -253t-259 -181z" />
    <glyph glyph-name="less" unicode="&#x3c;" horiz-adv-x="1173" 
d="M1096 104l-1020 463v353l1020 464v-280q0 -174 -162 -232l-359 -129l357 -127q164 -57 164 -231v-281z" />
    <glyph glyph-name="equal" unicode="=" horiz-adv-x="1191" 
d="M72 827v158q0 98 52 150.5t150 52.5h840v-158q0 -98 -52 -150.5t-151 -52.5h-839zM72 313v158q0 98 52 150.5t150 52.5h840v-158q0 -98 -52 -150.5t-151 -52.5h-839z" />
    <glyph glyph-name="greater" unicode="&#x3e;" horiz-adv-x="1173" 
d="M76 104v281q0 174 164 231l356 127l-358 129q-162 57 -162 232v280l1020 -462v-355z" />
    <glyph glyph-name="question" unicode="?" horiz-adv-x="1226" 
d="M340 485l-2 68q0 129 48 211t187 168q4 2 42 23.5t48.5 29.5t26 30.5t15.5 49.5q0 94 -125 94q-129 0 -199 -88q-63 -82 -117.5 -111.5t-138.5 -9.5l-166 41q4 55 26.5 120t70.5 141.5t116 138t174.5 102.5t233.5 41q248 0 407.5 -102.5t159.5 -323.5q0 -154 -61.5 -237
t-176.5 -146q-109 -59 -147 -96q-25 -23 -51.5 -54.5t-42 -48t-43 -29t-66.5 -12.5h-219zM536.5 -14q-96.5 0 -162 63.5t-65.5 157.5q0 90 66.5 152.5t161 62.5t161 -62.5t66.5 -152.5q0 -94 -65.5 -157.5t-162 -63.5z" />
    <glyph glyph-name="at" unicode="@" horiz-adv-x="1783" 
d="M831 -27q-354 0 -555.5 207t-201.5 574q0 311 207 534q223 233 589 234q375 0 588 -170q227 -188 228 -527q0 -88 -16.5 -173t-52.5 -169t-109.5 -136t-174.5 -52q-63 0 -125.5 35t-101.5 86q-23 -51 -101.5 -83t-160.5 -32q-195 0 -308.5 117t-113.5 321
q0 197 110.5 313.5t301.5 116.5q90 0 172 -34v20h264v-510q0 -104 61 -104q51 0 68.5 69.5t17.5 214.5q0 244 -131 344q-147 117 -416 117q-131 0 -235.5 -47t-165.5 -124t-93 -170t-32 -191q0 -557 526 -557q102 0 203 34q63 27 116.5 23t100.5 -51l74 -72
q-158 -158 -533 -158zM862 532q143 0 144 166v95q-6 154 -160 153q-78 0 -109.5 -64.5t-31.5 -142.5q0 -113 39.5 -160t117.5 -47z" />
    <glyph glyph-name="A" unicode="A" 
d="M-53 0l794 1499h136l794 -1499h-352q-154 0 -219 137l-37 76h-508l-37 -76q-66 -137 -219 -137h-352zM686 530h246l-123 299z" />
    <glyph glyph-name="B" unicode="B" horiz-adv-x="1452" 
d="M117 0v1499h674q240 0 379 -98t139 -299q0 -135 -61.5 -213t-143.5 -98v-3q39 -8 79 -30.5t83 -62.5t69.5 -109.5t26.5 -155.5q0 -156 -81 -256t-198.5 -137t-271.5 -37h-694zM575 922h168q55 0 80 32.5t25 73.5q0 104 -107 105h-166v-211zM575 367h209q51 0 85 29.5
t34 88.5q0 53 -36 87t-87 34h-205v-239z" />
    <glyph glyph-name="C" unicode="C" horiz-adv-x="1609" 
d="M848 -25q-334 0 -568.5 220.5t-234.5 552t234.5 553t568.5 221.5q233 0 426.5 -114t286.5 -302l-242 -100q-78 -23 -127 -7.5t-117 68.5q-92 72 -227 72q-160 0 -252 -112t-92 -279q0 -170 97 -280t269 -110q125 0 205 64q135 111 252 63l229 -94q-182 -416 -708 -416z
" />
    <glyph glyph-name="D" unicode="D" horiz-adv-x="1646" 
d="M123 0v1499h635q346 0 561 -206t215 -543q0 -340 -214 -545t-562 -205h-635zM582 367h157q57 0 113.5 20.5t108 63.5t83 119.5t31.5 177.5q0 195 -104.5 291t-231.5 96h-157v-768z" />
    <glyph glyph-name="E" unicode="E" horiz-adv-x="1427" 
d="M115 0v1499h1194v-182q0 -88 -50.5 -136t-144.5 -48h-543v-199h592v-172q0 -94 -50 -144.5t-144 -50.5h-398v-200h539q86 0 142.5 -56.5t56.5 -142.5v-168h-1194z" />
    <glyph glyph-name="F" unicode="F" horiz-adv-x="1361" 
d="M115 0v1499h1194v-182q0 -88 -50.5 -136t-144.5 -48h-541v-211h590v-172q0 -94 -50 -144.5t-144 -50.5h-396v-356q0 -86 -56 -142.5t-142 -56.5h-260z" />
    <glyph glyph-name="G" unicode="G" horiz-adv-x="1734" 
d="M850 -25q-330 0 -565.5 227.5t-235.5 545t235.5 546t565.5 228.5q223 0 408.5 -107.5t300.5 -294.5q-102 -57 -209 -110q-84 -33 -138.5 -21t-130.5 72q-98 76 -231 76q-156 0 -249 -112t-93 -277q0 -154 91 -265.5t237 -124.5q121 -10 219 40.5t121 148.5h-226
q-94 0 -144 50t-50 144v113h864q12 -98 0 -225q-29 -281 -241 -467.5t-529 -186.5z" />
    <glyph glyph-name="H" unicode="H" horiz-adv-x="1683" 
d="M315 0q-94 0 -144 50t-50 145v1304h264q94 0 144.5 -50t50.5 -144v-390h469v584h260q94 0 144 -50t50 -144v-1305h-260q-94 0 -144 50t-50 145v354h-469v-549h-265z" />
    <glyph glyph-name="I" unicode="I" horiz-adv-x="745" 
d="M352 0q-106 0 -165.5 59.5t-59.5 161.5v1278h258q86 0 142.5 -56.5t56.5 -142.5v-1300h-232z" />
    <glyph glyph-name="J" unicode="J" horiz-adv-x="1310" 
d="M614 -25q-182 -4 -317 56.5t-207 157t-108 225.5l211 75q82 25 123.5 12.5t80.5 -61.5q39 -47 71 -64.5t83 -17.5q170 0 170 183v759q0 86 56.5 142.5t142.5 56.5h260v-973q0 -262 -156 -402.5t-410 -148.5z" />
    <glyph glyph-name="K" unicode="K" horiz-adv-x="1581" 
d="M123 0v1499h260q86 0 142.5 -56.5t56.5 -142.5v-331l323 424q84 106 217 106h402l-621 -768l680 -731h-448q-123 0 -201 90l-352 399v-290q0 -86 -56.5 -142.5t-142.5 -56.5h-260z" />
    <glyph glyph-name="L" unicode="L" horiz-adv-x="1294" 
d="M113 0v1499h262q86 0 142 -56.5t56 -142.5v-933h514q86 0 142.5 -56.5t56.5 -142.5v-168h-1173z" />
    <glyph glyph-name="M" unicode="M" horiz-adv-x="1882" 
d="M127 0v1499h164l614 -725l625 725h160v-1499h-228q-100 0 -165.5 65.5t-65.5 165.5v336l-328 -430l-317 428v-334q0 -100 -65.5 -165.5t-166.5 -65.5h-227z" />
    <glyph glyph-name="N" unicode="N" horiz-adv-x="1667" 
d="M119 0v1499h170l749 -682v473q0 90 59.5 149.5t149.5 59.5h250v-1499h-172l-747 674v-465q0 -90 -59.5 -149.5t-149.5 -59.5h-250z" />
    <glyph glyph-name="O" unicode="O" horiz-adv-x="1740" 
d="M858 -25q-354 0 -578.5 224.5t-224.5 550t224.5 550t578.5 224.5q352 0 576.5 -224.5t224.5 -550t-224.5 -550t-576.5 -224.5zM858 360q158 0 250 110t92 280q0 164 -91 277.5t-251 113.5q-162 0 -253 -111.5t-91 -279.5t91 -279t253 -111z" />
    <glyph glyph-name="P" unicode="P" horiz-adv-x="1433" 
d="M119 0v1499h702q242 0 410 -162.5t168 -396.5q0 -242 -160 -388t-461 -146h-200v-197q0 -90 -59.5 -149.5t-149.5 -59.5h-250zM578 762h165q88 0 144.5 48t56.5 130q0 88 -57.5 140.5t-143.5 52.5h-165v-371z" />
    <glyph glyph-name="Q" unicode="Q" horiz-adv-x="1732" 
d="M866 -2q-207 0 -365.5 59.5t-253.5 166t-143.5 241.5t-48.5 297q0 313 232.5 536.5t556.5 223.5q334 0 561 -197t227 -508q0 -145 -64.5 -270t-144.5 -172h33q109 2 157 -54.5t48 -154.5v-168h-795zM844 385q152 0 242 109.5t90 267.5q0 154 -91.5 265.5t-240.5 111.5
q-154 0 -242 -110.5t-88 -266.5q0 -158 90 -267.5t240 -109.5z" />
    <glyph glyph-name="R" unicode="R" horiz-adv-x="1505" 
d="M123 0v1499h713q252 0 408.5 -152.5t156.5 -392.5q0 -152 -74 -269.5t-205 -154.5l396 -530h-367q-139 0 -221 113l-248 340h-102v-244q0 -90 -59.5 -149.5t-149.5 -59.5h-248zM580 809h196q59 0 115.5 41t56.5 113q0 78 -46 124t-126 46h-196v-324z" />
    <glyph glyph-name="S" unicode="S" horiz-adv-x="1421" 
d="M741 -25q-223 0 -391 67t-317 198l108 151q47 66 125 76t160 -31q170 -80 307 -80q76 0 119 25t43 65q0 14 -3 25.5t-10.5 21t-14.5 16.5t-22.5 13t-25.5 10.5t-31.5 9.5t-35 8t-40 7t-40.5 8q-4 0 -62.5 11.5t-77 15.5t-76 19.5t-82 25.5t-74.5 32.5t-74.5 45
t-59.5 56.5t-51.5 71t-29.5 87t-13 105q0 137 57 236.5t151.5 151t196 75t209.5 23.5q379 0 637 -230l-111 -147q-100 -137 -278 -62q-135 55 -258 56q-57 0 -101.5 -19.5t-44.5 -62.5q0 -35 31 -58.5t66 -33t90 -17.5q281 -43 385 -86q236 -98 250 -352q2 -18 2 -37
q0 -244 -166 -370t-447 -126z" />
    <glyph glyph-name="T" unicode="T" horiz-adv-x="1296" 
d="M430 0v1133h-389v167q0 86 56.5 142.5t142.5 56.5h1036v-168q0 -86 -56.5 -142t-142.5 -56h-190v-934q0 -86 -56.5 -142.5t-142.5 -56.5h-258z" />
    <glyph glyph-name="U" unicode="U" horiz-adv-x="1650" 
d="M801 -23q-307 0 -494.5 176.5t-187.5 469.5v876h260q86 0 142.5 -56.5t56.5 -142.5v-692q0 -127 71.5 -187.5t151.5 -60.5t152.5 60.5t72.5 187.5v692q0 86 56.5 142.5t142.5 56.5h256v-876q0 -295 -184.5 -470.5t-495.5 -175.5z" />
    <glyph glyph-name="V" unicode="V" horiz-adv-x="1523" 
d="M676 0l-739 1499h344q78 0 138 -41t89 -110l233 -549l238 551q31 70 91 109.5t136 39.5h342l-739 -1499h-133z" />
    <glyph glyph-name="W" unicode="W" horiz-adv-x="2031" 
d="M541 -2l-574 1501h307q84 0 148.5 -45t91.5 -125l152 -444l262 614h147l271 -618l151 446q27 78 91.5 125t148.5 47h309l-580 -1499h-143l-322 678l-323 -680h-137z" />
    <glyph glyph-name="X" unicode="X" horiz-adv-x="1601" 
d="M-61 0l577 741l-590 758h418q133 0 209 -108l229 -326l224 324q78 111 211 110h413l-586 -758l584 -741h-422q-133 0 -209 109l-217 307l-219 -310q-78 -106 -207 -106h-415z" />
    <glyph glyph-name="Y" unicode="Y" horiz-adv-x="1511" 
d="M492 0v571l-570 928h375q145 0 213 -125l217 -397l213 395q68 127 213 127h383l-582 -928v-571h-462z" />
    <glyph glyph-name="Z" unicode="Z" horiz-adv-x="1488" 
d="M6 0v137l723 996h-467q-86 0 -142.5 56t-56.5 142v168h1348v-141l-702 -991h479q86 0 142 -56.5t56 -142.5v-168h-1380z" />
    <glyph glyph-name="bracketleft" unicode="[" horiz-adv-x="817" 
d="M80 -283v2079h698v-160q0 -98 -52 -150t-151 -52h-77v-1354h141q139 0 139 -203v-160h-698z" />
    <glyph glyph-name="backslash" unicode="\" horiz-adv-x="1044" 
d="M842 -246q-174 0 -234 160l-676 1767h248q174 0 234 -159l678 -1768h-250z" />
    <glyph glyph-name="bracketright" unicode="]" horiz-adv-x="757" 
d="M12 -283v181q0 98 52.5 150t150.5 52h80v1313h-80q-98 0 -150.5 52.5t-52.5 150.5v180h703v-2079h-703z" />
    <glyph glyph-name="asciicircum" unicode="^" horiz-adv-x="1282" 
d="M-12 668l428 843h391l430 -843h-256q-166 0 -238 149l-133 270l-114 -266q-66 -154 -236 -153h-272z" />
    <glyph glyph-name="underscore" unicode="_" horiz-adv-x="1363" 
d="M61 -369v166q0 98 52.5 150.5t150.5 52.5h1022v-166q0 -98 -52 -150.5t-151 -52.5h-1022z" />
    <glyph glyph-name="grave" unicode="`" horiz-adv-x="602" 
d="M444 1536q-143 0 -251 88l-250 201l217 82q168 63 272 -82l201 -289h-189z" />
    <glyph glyph-name="a" unicode="a" 
d="M-53 0l794 1499h136l794 -1499h-352q-154 0 -219 137l-37 76h-508l-37 -76q-66 -137 -219 -137h-352zM686 530h246l-123 299z" />
    <glyph glyph-name="b" unicode="b" horiz-adv-x="1452" 
d="M117 0v1499h674q240 0 379 -98t139 -299q0 -135 -61.5 -213t-143.5 -98v-3q39 -8 79 -30.5t83 -62.5t69.5 -109.5t26.5 -155.5q0 -156 -81 -256t-198.5 -137t-271.5 -37h-694zM575 922h168q55 0 80 32.5t25 73.5q0 104 -107 105h-166v-211zM575 367h209q51 0 85 29.5
t34 88.5q0 53 -36 87t-87 34h-205v-239z" />
    <glyph glyph-name="c" unicode="c" horiz-adv-x="1609" 
d="M848 -25q-334 0 -568.5 220.5t-234.5 552t234.5 553t568.5 221.5q233 0 426.5 -114t286.5 -302l-242 -100q-78 -23 -127 -7.5t-117 68.5q-92 72 -227 72q-160 0 -252 -112t-92 -279q0 -170 97 -280t269 -110q125 0 205 64q135 111 252 63l229 -94q-182 -416 -708 -416z
" />
    <glyph glyph-name="d" unicode="d" horiz-adv-x="1646" 
d="M123 0v1499h635q346 0 561 -206t215 -543q0 -340 -214 -545t-562 -205h-635zM582 367h157q57 0 113.5 20.5t108 63.5t83 119.5t31.5 177.5q0 195 -104.5 291t-231.5 96h-157v-768z" />
    <glyph glyph-name="e" unicode="e" horiz-adv-x="1427" 
d="M115 0v1499h1194v-182q0 -88 -50.5 -136t-144.5 -48h-543v-199h592v-172q0 -94 -50 -144.5t-144 -50.5h-398v-200h539q86 0 142.5 -56.5t56.5 -142.5v-168h-1194z" />
    <glyph glyph-name="f" unicode="f" horiz-adv-x="1361" 
d="M115 0v1499h1194v-182q0 -88 -50.5 -136t-144.5 -48h-541v-211h590v-172q0 -94 -50 -144.5t-144 -50.5h-396v-356q0 -86 -56 -142.5t-142 -56.5h-260z" />
    <glyph glyph-name="g" unicode="g" horiz-adv-x="1734" 
d="M850 -25q-330 0 -565.5 227.5t-235.5 545t235.5 546t565.5 228.5q223 0 408.5 -107.5t300.5 -294.5q-102 -57 -209 -110q-84 -33 -138.5 -21t-130.5 72q-98 76 -231 76q-156 0 -249 -112t-93 -277q0 -154 91 -265.5t237 -124.5q121 -10 219 40.5t121 148.5h-226
q-94 0 -144 50t-50 144v113h864q12 -98 0 -225q-29 -281 -241 -467.5t-529 -186.5z" />
    <glyph glyph-name="h" unicode="h" horiz-adv-x="1683" 
d="M315 0q-94 0 -144 50t-50 145v1304h264q94 0 144.5 -50t50.5 -144v-390h469v584h260q94 0 144 -50t50 -144v-1305h-260q-94 0 -144 50t-50 145v354h-469v-549h-265z" />
    <glyph glyph-name="i" unicode="i" horiz-adv-x="745" 
d="M352 0q-106 0 -165.5 59.5t-59.5 161.5v1278h258q86 0 142.5 -56.5t56.5 -142.5v-1300h-232z" />
    <glyph glyph-name="j" unicode="j" horiz-adv-x="1310" 
d="M614 -25q-182 -4 -317 56.5t-207 157t-108 225.5l211 75q82 25 123.5 12.5t80.5 -61.5q39 -47 71 -64.5t83 -17.5q170 0 170 183v759q0 86 56.5 142.5t142.5 56.5h260v-973q0 -262 -156 -402.5t-410 -148.5z" />
    <glyph glyph-name="k" unicode="k" horiz-adv-x="1581" 
d="M123 0v1499h260q86 0 142.5 -56.5t56.5 -142.5v-331l323 424q84 106 217 106h402l-621 -768l680 -731h-448q-123 0 -201 90l-352 399v-290q0 -86 -56.5 -142.5t-142.5 -56.5h-260z" />
    <glyph glyph-name="l" unicode="l" horiz-adv-x="1294" 
d="M113 0v1499h262q86 0 142 -56.5t56 -142.5v-933h514q86 0 142.5 -56.5t56.5 -142.5v-168h-1173z" />
    <glyph glyph-name="m" unicode="m" horiz-adv-x="1882" 
d="M127 0v1499h164l614 -725l625 725h160v-1499h-228q-100 0 -165.5 65.5t-65.5 165.5v336l-328 -430l-317 428v-334q0 -100 -65.5 -165.5t-166.5 -65.5h-227z" />
    <glyph glyph-name="n" unicode="n" horiz-adv-x="1667" 
d="M119 0v1499h170l749 -682v473q0 90 59.5 149.5t149.5 59.5h250v-1499h-172l-747 674v-465q0 -90 -59.5 -149.5t-149.5 -59.5h-250z" />
    <glyph glyph-name="o" unicode="o" horiz-adv-x="1740" 
d="M858 -25q-354 0 -578.5 224.5t-224.5 550t224.5 550t578.5 224.5q352 0 576.5 -224.5t224.5 -550t-224.5 -550t-576.5 -224.5zM858 360q158 0 250 110t92 280q0 164 -91 277.5t-251 113.5q-162 0 -253 -111.5t-91 -279.5t91 -279t253 -111z" />
    <glyph glyph-name="p" unicode="p" horiz-adv-x="1433" 
d="M119 0v1499h702q242 0 410 -162.5t168 -396.5q0 -242 -160 -388t-461 -146h-200v-197q0 -90 -59.5 -149.5t-149.5 -59.5h-250zM578 762h165q88 0 144.5 48t56.5 130q0 88 -57.5 140.5t-143.5 52.5h-165v-371z" />
    <glyph glyph-name="q" unicode="q" horiz-adv-x="1732" 
d="M866 -2q-207 0 -365.5 59.5t-253.5 166t-143.5 241.5t-48.5 297q0 313 232.5 536.5t556.5 223.5q334 0 561 -197t227 -508q0 -145 -64.5 -270t-144.5 -172h33q109 2 157 -54.5t48 -154.5v-168h-795zM844 385q152 0 242 109.5t90 267.5q0 154 -91.5 265.5t-240.5 111.5
q-154 0 -242 -110.5t-88 -266.5q0 -158 90 -267.5t240 -109.5z" />
    <glyph glyph-name="r" unicode="r" horiz-adv-x="1505" 
d="M123 0v1499h713q252 0 408.5 -152.5t156.5 -392.5q0 -152 -74 -269.5t-205 -154.5l396 -530h-367q-139 0 -221 113l-248 340h-102v-244q0 -90 -59.5 -149.5t-149.5 -59.5h-248zM580 809h196q59 0 115.5 41t56.5 113q0 78 -46 124t-126 46h-196v-324z" />
    <glyph glyph-name="s" unicode="s" horiz-adv-x="1421" 
d="M741 -25q-223 0 -391 67t-317 198l108 151q47 66 125 76t160 -31q170 -80 307 -80q76 0 119 25t43 65q0 14 -3 25.5t-10.5 21t-14.5 16.5t-22.5 13t-25.5 10.5t-31.5 9.5t-35 8t-40 7t-40.5 8q-4 0 -62.5 11.5t-77 15.5t-76 19.5t-82 25.5t-74.5 32.5t-74.5 45
t-59.5 56.5t-51.5 71t-29.5 87t-13 105q0 137 57 236.5t151.5 151t196 75t209.5 23.5q379 0 637 -230l-111 -147q-100 -137 -278 -62q-135 55 -258 56q-57 0 -101.5 -19.5t-44.5 -62.5q0 -35 31 -58.5t66 -33t90 -17.5q281 -43 385 -86q236 -98 250 -352q2 -18 2 -37
q0 -244 -166 -370t-447 -126z" />
    <glyph glyph-name="t" unicode="t" horiz-adv-x="1296" 
d="M430 0v1133h-389v167q0 86 56.5 142.5t142.5 56.5h1036v-168q0 -86 -56.5 -142t-142.5 -56h-190v-934q0 -86 -56.5 -142.5t-142.5 -56.5h-258z" />
    <glyph glyph-name="u" unicode="u" horiz-adv-x="1650" 
d="M801 -23q-307 0 -494.5 176.5t-187.5 469.5v876h260q86 0 142.5 -56.5t56.5 -142.5v-692q0 -127 71.5 -187.5t151.5 -60.5t152.5 60.5t72.5 187.5v692q0 86 56.5 142.5t142.5 56.5h256v-876q0 -295 -184.5 -470.5t-495.5 -175.5z" />
    <glyph glyph-name="v" unicode="v" horiz-adv-x="1523" 
d="M676 0l-739 1499h344q78 0 138 -41t89 -110l233 -549l238 551q31 70 91 109.5t136 39.5h342l-739 -1499h-133z" />
    <glyph glyph-name="w" unicode="w" horiz-adv-x="2031" 
d="M541 -2l-574 1501h307q84 0 148.5 -45t91.5 -125l152 -444l262 614h147l271 -618l151 446q27 78 91.5 125t148.5 47h309l-580 -1499h-143l-322 678l-323 -680h-137z" />
    <glyph glyph-name="x" unicode="x" horiz-adv-x="1601" 
d="M-61 0l577 741l-590 758h418q133 0 209 -108l229 -326l224 324q78 111 211 110h413l-586 -758l584 -741h-422q-133 0 -209 109l-217 307l-219 -310q-78 -106 -207 -106h-415z" />
    <glyph glyph-name="y" unicode="y" horiz-adv-x="1511" 
d="M492 0v571l-570 928h375q145 0 213 -125l217 -397l213 395q68 127 213 127h383l-582 -928v-571h-462z" />
    <glyph glyph-name="z" unicode="z" horiz-adv-x="1488" 
d="M6 0v137l723 996h-467q-86 0 -142.5 56t-56.5 142v168h1348v-141l-702 -991h479q86 0 142 -56.5t56 -142.5v-168h-1380z" />
    <glyph glyph-name="braceleft" unicode="{" horiz-adv-x="856" 
d="M829 -330q-362 0 -542 215q-57 68 -88 143.5t-36 122t-7 129t-4 109.5q0 8 -2.5 36t-3.5 35t-5 27.5t-8 27.5t-12 20.5t-20.5 18.5t-29 11t-38.5 8v355q23 2 39 8t28.5 11t20.5 18.5t12 20.5t8 27.5t5 28t3.5 35t2.5 35.5q2 27 4 110t7 129t35.5 121.5t88.5 143.5
q180 215 542 215v-166q0 -78 -34.5 -121t-106.5 -71q-78 -35 -110 -91q-23 -37 -32 -74.5t-10 -62t3 -89t4 -103.5q0 -47 -1 -67.5t-9.5 -68t-26 -73t-53 -53t-88.5 -39.5q39 -10 68.5 -27.5t48 -34t30.5 -46.5t18.5 -46t9.5 -53t3 -48.5v-47.5q0 -39 -4 -103.5t-3 -89.5
t10 -62.5t32 -74.5q25 -43 79 -76q92 -49 132 -93t40 -126v-154z" />
    <glyph glyph-name="bar" unicode="|" horiz-adv-x="606" 
d="M330 -188q-98 0 -150.5 52t-52.5 150v1672h174q172 0 172 -203v-1671h-143z" />
    <glyph glyph-name="braceright" unicode="}" horiz-adv-x="856" 
d="M33 -330v154q0 84 34.5 130t106.5 75q78 35 111 90q23 37 32 74.5t10 62.5t-3.5 89.5t-4.5 103.5v48t3.5 48t9.5 53t18 46t30.5 46.5t48.5 33.5t69 28q-53 12 -89 39.5t-53.5 53t-25.5 73t-9.5 68t-1.5 67.5q0 39 4.5 103.5t3.5 89t-10.5 62.5t-31.5 74q-25 43 -80 76
q-92 49 -132 93t-40 126v154q362 0 542 -215q57 -68 88 -143.5t36.5 -121.5t7.5 -129t4 -110q0 -8 2 -35.5t3 -35t5 -28t8 -27.5t12.5 -20.5t20.5 -18.5t28.5 -11t38.5 -8v-355q-23 -2 -39 -8t-28 -11t-20.5 -18.5t-12.5 -20.5t-8 -27.5t-5 -27.5t-3 -35t-2 -36
q-2 -27 -4 -109.5t-7.5 -129t-36 -122t-88.5 -143.5q-180 -215 -542 -215z" />
    <glyph glyph-name="asciitilde" unicode="~" horiz-adv-x="1193" 
d="M772 616q-74 0 -127 17.5t-76.5 38t-58.5 38t-78 17.5q-37 0 -65 -18q-12 -6 -37 -20.5t-36 -19.5t-30.5 -11.5t-38 -5.5t-39.5 10l-139 49q14 51 41 101t68 101.5t102 82t133 30.5q74 -2 177.5 -57.5t160.5 -55.5q45 0 74 23q8 6 29.5 21.5t28.5 19.5t24.5 13t28 9
t27.5 -1t36 -7l143 -49q-23 -74 -66.5 -144.5t-119.5 -126t-162 -55.5z" />
    <glyph glyph-name="exclamdown" unicode="&#xa1;" horiz-adv-x="620" 
d="M293 1075q-94 0 -162 62.5t-68 152.5q0 94 67 157.5t163 63.5q94 0 159.5 -63.5t65.5 -157.5q0 -90 -65.5 -152.5t-159.5 -62.5zM57 0l47 807q12 197 207 197h160l43 -795q6 -100 -45 -154.5t-152 -54.5h-260z" />
    <glyph glyph-name="cent" unicode="&#xa2;" horiz-adv-x="1310" 
d="M651 -20q-203 0 -202 174q-180 33 -297 199.5t-117 391.5q0 233 111.5 387t302.5 203v187h253q203 0 203 -179q135 -37 242.5 -134t136.5 -259l-227 -71q-33 -10 -59.5 -11.5t-45 1.5t-44 20.5t-38 27t-45.5 37.5q-55 45 -137 45q-88 0 -148.5 -69.5t-60.5 -184.5
q0 -113 60.5 -184.5t148.5 -71.5q68 0 115 31q16 10 51 36t49.5 34t42 19.5t52 9t57.5 -12.5l229 -69q-49 -170 -152.5 -266.5t-226.5 -125.5v-165h-254z" />
    <glyph glyph-name="sterling" unicode="&#xa3;" horiz-adv-x="1302" 
d="M59 0v342q129 49 154 133q8 27 8 72h-168v201q0 61 40 107t93 46l-10 66q-39 242 114.5 398.5t424.5 156.5q242 0 387 -137.5t168 -311.5l-223 -55q-88 -18 -132.5 -1t-83.5 75q-43 57 -102 57q-66 0 -96.5 -40t-26.5 -95.5t8 -112.5h404v-153q0 -201 -201 -205l-158 -2
q-4 -106 -53 -170h408q98 0 150.5 -52.5t52.5 -150.5v-168h-1158z" />
    <glyph glyph-name="yen" unicode="&#xa5;" horiz-adv-x="1271" 
d="M414 0v213h-293v80q0 98 52 150.5t151 52.5h90v84h-293v86q0 98 49 150t143 52l-372 633h317q166 0 240 -145l127 -242l125 242q74 145 239 145h320l-375 -633h207v-86q0 -98 -52.5 -150t-150.5 -52h-111v-84h314v-80q0 -98 -52.5 -150.5t-150.5 -52.5h-111v-213h-413z
" />
    <glyph glyph-name="brokenbar" unicode="&#xa6;" horiz-adv-x="606" 
d="M106 840v846h185q98 0 150.5 -52.5t52.5 -150.5v-643h-388zM309 -188q-98 0 -150.5 52t-52.5 150v639h388v-841h-185z" />
    <glyph glyph-name="section" unicode="&#xa7;" horiz-adv-x="1101" 
d="M555 -27q-156 0 -298 62.5t-224 142.5l65 90q53 74 121 85.5t152 -27.5q100 -43 178 -47q53 -2 86 14t33 45q0 33 -34 49t-122 35q-59 8 -85 13t-85 18.5t-88 27t-73 39t-65.5 55t-38 74.5t-16.5 101q0 68 42 130t96 78q-55 14 -96.5 76t-41.5 146q0 86 38 151.5
t89.5 100t119 56t112.5 28t84 6.5q125 0 256 -51.5t227 -143.5l-65 -86q-55 -74 -121 -86t-142 25q-82 37 -159 37q-92 0 -92 -50q0 -20 8 -32.5t30.5 -20.5t44 -12t66.5 -11.5t80 -13.5q45 -8 66.5 -13t69.5 -18.5t73.5 -26.5t62.5 -39t57.5 -54.5t35 -72.5t14.5 -97
q0 -59 -48 -127t-91 -74q55 -16 98 -81.5t43 -135.5q0 -180 -137.5 -272.5t-325.5 -92.5zM614 676q35 0 63 16.5t28 50.5q0 49 -81 76t-171 27q-100 0 -80 -90q14 -37 98 -58.5t143 -21.5z" />
    <glyph glyph-name="dieresis" unicode="&#xa8;" horiz-adv-x="911" 
d="M209 1509q-80 0 -131 51.5t-51 125t51 125t131 51.5q78 0 129 -51.5t51 -125t-51 -125t-129 -51.5zM661.5 1509q-79.5 0 -130 50.5t-50.5 126t50.5 126t130 50.5t131 -51.5t51.5 -125t-51.5 -125t-131 -51.5z" />
    <glyph glyph-name="copyright" unicode="&#xa9;" horiz-adv-x="1716" 
d="M854 -25q-324 0 -553 226.5t-229 544t229 544t553 226.5t553 -226.5t229 -544t-229 -544t-553 -226.5zM854 168q242 0 413 170t171 407.5t-171 406.5t-413 169t-414 -169t-172 -406.5t172 -407.5t414 -170zM854 344q-172 0 -295 118t-123 285.5t123 286.5t295 119
q125 0 226.5 -58.5t148.5 -158.5l-99 -41q-25 -10 -46 -13t-43.5 4t-37 15t-45.5 27q-49 25 -104 24q-82 0 -130 -58t-48 -146q0 -86 48 -144.5t130 -58.5q55 0 100 20q86 47 119 47q27 2 60 -12l94 -39q-97 -217 -373 -217z" />
    <glyph glyph-name="ordfeminine" unicode="&#xaa;" horiz-adv-x="747" 
d="M295 840q-111 0 -169 53t-58 154q0 121 73.5 173t171.5 52q80 0 129 -29q2 96 -86 105q-31 2 -71 -5q-70 -18 -122 -3.5t-85 75.5l-4 8q129 104 297 105q283 0 282 -311v-373h-145q-70 0 -70 49q-34 -53 -143 -53zM356 1006q43 0 62.5 19t19.5 69q-31 27 -76 26
q-82 0 -81 -57q0 -25 22 -41t53 -16zM59 604v43q0 158 158 158h445v-55q0 -78 -39 -112t-119 -34h-445z" />
    <glyph glyph-name="guillemotleft" unicode="&#xab;" horiz-adv-x="1306" 
d="M522 242q-160 0 -243 131l-250 379l252 383q84 131 243 131h228l-351 -512l359 -512h-238zM1053 242q-156 0 -246 131l-252 379l254 383q86 131 244 131h221l-346 -510l354 -514h-229z" />
    <glyph glyph-name="logicalnot" unicode="&#xac;" horiz-adv-x="1249" 
d="M934 371q-98 0 -150.5 52t-52.5 150v160h-452q-98 0 -150.5 52.5t-52.5 150.5v156h1095v-721h-237z" />
    <glyph glyph-name="uni00AD" unicode="&#xad;" horiz-adv-x="1767" 
 />
    <glyph glyph-name="registered" unicode="&#xae;" horiz-adv-x="1718" 
d="M854 -25q-324 0 -553 226.5t-229 546.5q0 317 229 543.5t553 226.5t554 -226.5t230 -543.5q0 -319 -230 -546t-554 -227zM854 170q242 0 414 170t172 407.5t-172 407.5t-414 170t-414 -170t-172 -407.5t172 -407.5t414 -170zM541 391v733h354q119 0 195.5 -75.5
t76.5 -192.5q0 -72 -37.5 -130t-101.5 -75l199 -260h-152q-104 0 -164 86l-92 137h-55v-110q0 -113 -135 -113h-88zM764 788h100q33 0 55.5 18.5t22.5 55.5q0 31 -18.5 56.5t-59.5 25.5h-100v-156z" />
    <glyph glyph-name="macron" unicode="&#xaf;" horiz-adv-x="770" 
d="M4 1477v125q0 90 59.5 148t147.5 58h537v-125q0 -90 -58.5 -148t-148.5 -58h-537z" />
    <glyph glyph-name="degree" unicode="&#xb0;" horiz-adv-x="712" 
d="M354 1094q-133 0 -227 91t-94 218t94 219t227 92t224.5 -91t91.5 -220t-91.5 -219t-224.5 -90zM350 1307q39 0 67.5 28.5t28.5 67.5t-28.5 67.5t-67.5 28.5t-67.5 -28.5t-28.5 -67.5t28.5 -67.5t67.5 -28.5z" />
    <glyph glyph-name="plusminus" unicode="&#xb1;" horiz-adv-x="1165" 
d="M569 438q-98 0 -150 52.5t-52 150.5v31h-299v172q0 98 52 150.5t150 52.5h97v282h178q98 0 150.5 -52t52.5 -151v-79h296v-173q0 -98 -52 -150t-150 -52h-94v-234h-179zM68 0v164q0 98 52 150.5t150 52.5h774v-183q0 -90 -52 -137t-150 -47h-774z" />
    <glyph glyph-name="uni00B2" unicode="&#xb2;" horiz-adv-x="843" 
d="M4 616v254l365 314q94 78 94 147q0 25 -20.5 43.5t-49.5 18.5q-55 0 -102 -56q-51 -59 -96 -79.5t-109 -0.5l-121 37q14 66 43 129.5t79 128t131 104.5t181 40q213 0 310.5 -100.5t97.5 -264.5q0 -29 -6 -58.5t-13.5 -52t-26 -50t-28.5 -44t-37.5 -43t-39 -38t-45 -38
t-43 -32.5t-47.5 -33t-42 -31l-30 -22h213q158 0 157 -158v-115h-815z" />
    <glyph glyph-name="uni00B3" unicode="&#xb3;" horiz-adv-x="815" 
d="M383 598q-176 0 -284.5 121t-123.5 239l123 25q18 4 33.5 5t31 -4t24 -6t23.5 -14.5t19 -16.5t22.5 -22.5t22.5 -23.5q37 -35 109 -35q41 0 65.5 22.5t24.5 53.5q0 106 -186 100v56q0 66 29.5 98.5t95.5 56.5q61 23 61 88q0 37 -23.5 59.5t-66.5 22.5q-55 0 -98 -32
q-8 -8 -26.5 -25.5t-26 -24t-21.5 -17.5t-24.5 -14t-25 -7.5t-29.5 -3.5t-34 6l-123 28q6 49 34 107.5t76 116t127 96.5t171 39q201 0 297 -98.5t96 -233.5q0 -84 -43 -144.5t-98 -70.5q57 -14 99 -76.5t42 -153.5q0 -145 -112.5 -231t-280.5 -86z" />
    <glyph glyph-name="acute" unicode="&#xb4;" horiz-adv-x="565" 
d="M-74 1536l201 289q104 145 272 82l217 -82l-249 -201q-109 -88 -252 -88h-189z" />
    <glyph glyph-name="paragraph" unicode="&#xb6;" horiz-adv-x="1173" 
d="M481 0q-145 0 -145 203v377q-143 33 -238.5 145.5t-95.5 288.5q0 53 9 106.5t44 126t93.5 125.5t170 91t261.5 38h483v-1501h-96q-98 0 -150.5 52t-52.5 151v1005h-137v-1208h-146z" />
    <glyph glyph-name="periodcentered" unicode="&#xb7;" horiz-adv-x="522" 
d="M254 629q-94 0 -159.5 63.5t-65.5 157.5q0 90 65.5 152.5t159.5 62.5q96 0 162.5 -62.5t66.5 -152.5q0 -94 -66.5 -157.5t-162.5 -63.5z" />
    <glyph glyph-name="cedilla" unicode="&#xb8;" horiz-adv-x="477" 
d="M215 -446q-61 0 -113.5 18t-72.5 37l-23 18q23 63 42.5 86t60.5 25q8 0 25.5 -3t25.5 -3q61 -2 61 45q0 51 -61 53q-18 0 -38 -5t-32 -9l-10 -6l-39 47l55 188h256l-30 -86q74 -4 111.5 -61.5t33.5 -141.5q-12 -202 -252 -202z" />
    <glyph glyph-name="uni00B9" unicode="&#xb9;" horiz-adv-x="606" 
d="M330 616q-158 0 -158 158v391q-76 -84 -186 43l-88 101l381 366h249v-1059h-198z" />
    <glyph glyph-name="ordmasculine" unicode="&#xba;" horiz-adv-x="821" 
d="M417.5 840q-143.5 0 -244.5 100t-101 242q0 139 101 238.5t244.5 99.5t246 -99.5t102.5 -238.5q0 -141 -102.5 -241.5t-246 -100.5zM418 1044q53 0 90 41t37 97q0 51 -37 92t-90 41t-90 -41t-37 -92q0 -55 37 -96.5t90 -41.5zM106 604v43q0 158 158 158h463v-100
q0 -100 -158 -101h-463z" />
    <glyph glyph-name="guillemotright" unicode="&#xbb;" horiz-adv-x="1282" 
d="M4 242l356 514l-350 510h219q158 0 246 -131l258 -383l-256 -379q-88 -131 -246 -131h-227zM532 242l359 514l-348 510h219q160 0 244 -131l249 -383l-247 -379q-84 -131 -244 -131h-232z" />
    <glyph glyph-name="onequarter" unicode="&#xbc;" horiz-adv-x="2080" 
d="M362 446q-158 0 -157 158v391q-76 -84 -187 43l-88 101l381 366h230v-1059h-179zM336 0l856 1395q66 106 190 106h215l-858 -1395q-66 -106 -190 -106h-213zM1722 0q-158 0 -157 158v41h-473v262l538 604h260v-576q51 0 81 -32.5t30 -75.5v-182h-111v-199h-168zM1434 489
h131v150z" />
    <glyph glyph-name="onehalf" unicode="&#xbd;" horiz-adv-x="2113" 
d="M362 446q-158 0 -157 158v391q-76 -84 -187 43l-88 101l381 366h230v-1059h-179zM336 0l856 1395q66 106 190 106h215l-858 -1395q-66 -106 -190 -106h-213zM1247 4v254l365 313q92 76 92 148q0 20 -16.5 38.5t-45.5 18.5q-41 0 -92 -55q-53 -59 -95 -79.5t-103 -2.5
l-144 43q14 49 33 94t55.5 104.5t81.5 101.5t114 71.5t150 29.5q213 0 310.5 -100t97.5 -264q0 -29 -6 -58.5t-13.5 -52t-25.5 -50.5t-28.5 -44t-38 -43t-39 -38t-45 -37.5t-43 -33t-47.5 -33t-42 -30.5l-30 -23h213q158 0 157 -157v-115h-815z" />
    <glyph glyph-name="threequarters" unicode="&#xbe;" horiz-adv-x="2224" 
d="M422 432q-176 0 -284.5 121t-123.5 240l123 24q18 4 33.5 5t31 -4t23.5 -6t23.5 -14.5t19.5 -16.5t22.5 -22.5t22.5 -23.5q37 -35 109 -35q41 0 65.5 22.5t24.5 53.5q0 106 -186 101v55q0 66 29.5 98.5t95.5 56.5q61 23 61 89q0 37 -23.5 59t-66.5 22q-55 0 -98 -32
q-8 -8 -26.5 -25.5t-26 -24t-21.5 -17.5t-24.5 -14t-25 -7t-29.5 -3t-34 5l-123 28q6 49 34 107.5t76 116t127 96.5t171 39q201 0 297 -98.5t96 -233.5q0 -84 -43 -144.5t-98 -70.5q57 -14 99 -76.5t42 -152.5q0 -145 -112.5 -231.5t-280.5 -86.5zM520 0l856 1395
q66 106 191 106h215l-858 -1395q-66 -106 -191 -106h-213zM1890 0q-158 0 -157 158v41h-473v262l538 604h260v-576q51 0 81 -32.5t30 -75.5v-182h-111v-199h-168zM1602 489h131v150z" />
    <glyph glyph-name="questiondown" unicode="&#xbf;" horiz-adv-x="1226" 
d="M690 1092q-94 0 -160.5 62.5t-66.5 152.5q0 94 65.5 157.5t161.5 63.5t162 -63.5t66 -157.5q0 -90 -67 -152.5t-161 -62.5zM647 -20q-248 0 -407.5 102t-159.5 324q0 154 61.5 236.5t175.5 145.5q109 59 148 97q25 23 51.5 54.5t41.5 48t43 28.5t67 12h219l2 -67
q4 -127 -45 -210t-191 -169q-4 -2 -42 -23.5t-48 -30t-25.5 -31t-15.5 -48.5q0 -94 125 -95q129 0 199 88q63 82 117.5 112t138.5 9l166 -41q-4 -55 -26.5 -119.5t-71 -141.5t-116 -138.5t-174 -102t-233.5 -40.5z" />
    <glyph glyph-name="Agrave" unicode="&#xc0;" 
d="M793 1585q-143 0 -252 88l-250 201l217 82q168 63 272 -82l201 -289h-188zM-53 0l794 1499h136l794 -1499h-352q-154 0 -219 137l-37 76h-508l-37 -76q-66 -137 -219 -137h-352zM686 530h246l-123 299z" />
    <glyph glyph-name="Aacute" unicode="&#xc1;" 
d="M623 1581l200 289q104 145 273 82l217 -82l-250 -201q-109 -88 -252 -88h-188zM-53 0l794 1499h136l794 -1499h-352q-154 0 -219 137l-37 76h-508l-37 -76q-66 -137 -219 -137h-352zM686 530h246l-123 299z" />
    <glyph glyph-name="Acircumflex" unicode="&#xc2;" 
d="M365 1587l335 389h220l335 -389h-249q-92 0 -142 72l-55 82l-55 -82q-49 -72 -142 -72h-247zM-53 0l794 1499h136l794 -1499h-352q-154 0 -219 137l-37 76h-508l-37 -76q-66 -137 -219 -137h-352zM686 530h246l-123 299z" />
    <glyph glyph-name="Atilde" unicode="&#xc3;" 
d="M1016 1589q-76 0 -174.5 48.5t-139.5 48.5q-37 0 -61 -11q-18 -8 -45 -23.5t-40 -21.5t-41 -11t-48 7l-100 39q27 106 94 185t164 79q80 0 162.5 -46t146.5 -46q43 0 61 6q20 6 48 23.5t46.5 28t51.5 9.5t71 -22l78 -41q-86 -252 -274 -252zM-53 0l794 1499h136
l794 -1499h-352q-154 0 -219 137l-37 76h-508l-37 -76q-66 -137 -219 -137h-352zM686 530h246l-123 299z" />
    <glyph glyph-name="Adieresis" unicode="&#xc4;" 
d="M584 1579q-80 0 -131.5 51t-51.5 125t51.5 125t131.5 51q78 0 129 -51t51 -125t-51 -125t-129 -51zM1036 1579q-78 0 -129 50t-51 126t51 126t129 50q80 0 131.5 -51t51.5 -125t-51.5 -125t-131.5 -51zM-53 0l794 1499h136l794 -1499h-352q-154 0 -219 137l-37 76h-508
l-37 -76q-66 -137 -219 -137h-352zM686 530h246l-123 299z" />
    <glyph glyph-name="Aring" unicode="&#xc5;" 
d="M-53 0l758 1432q-74 29 -120 93t-46 146q0 104 76.5 180t189.5 76q106 0 184 -76.5t78 -179.5q0 -78 -44 -141.5t-114 -93.5l762 -1436h-317q-188 0 -269 166l-22 47h-508l-23 -47q-80 -166 -268 -166h-317zM807 1606q29 0 48 19.5t19 46t-19 46t-48 19.5t-48.5 -18.5
t-19.5 -47.5t19.5 -47t48.5 -18zM686 530h246l-123 299z" />
    <glyph glyph-name="AE" unicode="&#xc6;" horiz-adv-x="2125" 
d="M-61 0l837 1497h1227v-182q0 -88 -52.5 -135t-150.5 -47h-524v-199h647v-164q0 -98 -52 -150.5t-151 -52.5h-444v-200h524q98 0 150.5 -52.5t52.5 -150.5v-164h-1163v221h-312l-47 -82q-78 -139 -241 -139h-301zM707 584h133v250z" />
    <glyph glyph-name="Ccedilla" unicode="&#xc7;" horiz-adv-x="1589" 
d="M1075 422q135 111 252 63l229 -94q-166 -381 -626 -414l-21 -55q74 -4 112 -61.5t34 -141.5q-12 -203 -252 -202q-61 0 -113.5 18.5t-75.5 36.5l-20 18q23 63 42 86t60 25q8 0 25.5 -3t26.5 -3q61 -2 61 45q0 51 -61 53q-18 0 -38 -5t-30 -9l-12 -6l-39 47l51 172
q-276 55 -455.5 262t-179.5 494q0 332 234.5 553t568.5 221q233 0 426.5 -114t286.5 -302l-242 -100q-78 -23 -127 -7.5t-117 68.5q-92 72 -227 72q-160 0 -252 -112t-92 -279q0 -170 97 -280t269 -110q125 1 205 64z" />
    <glyph glyph-name="Egrave" unicode="&#xc8;" horiz-adv-x="1427" 
d="M772 1585q-143 0 -252 88l-250 201l217 82q168 63 273 -82l201 -289h-189zM115 0v1499h1194v-182q0 -88 -50.5 -136t-144.5 -48h-543v-199h592v-172q0 -94 -50 -144.5t-144 -50.5h-398v-200h539q86 0 142.5 -56.5t56.5 -142.5v-168h-1194z" />
    <glyph glyph-name="Eacute" unicode="&#xc9;" horiz-adv-x="1427" 
d="M416 1585l200 289q104 145 273 82l217 -82l-250 -201q-109 -88 -252 -88h-188zM115 0v1499h1194v-182q0 -88 -50.5 -136t-144.5 -48h-543v-199h592v-172q0 -94 -50 -144.5t-144 -50.5h-398v-200h539q86 0 142.5 -56.5t56.5 -142.5v-168h-1194z" />
    <glyph glyph-name="Ecircumflex" unicode="&#xca;" horiz-adv-x="1427" 
d="M264 1587l336 389h219l336 -389h-250q-92 0 -141 72l-55 82l-56 -82q-49 -72 -141 -72h-248zM115 0v1499h1194v-182q0 -88 -50.5 -136t-144.5 -48h-543v-199h592v-172q0 -94 -50 -144.5t-144 -50.5h-398v-200h539q86 0 142.5 -56.5t56.5 -142.5v-168h-1194z" />
    <glyph glyph-name="Edieresis" unicode="&#xcb;" horiz-adv-x="1427" 
d="M492 1579q-80 0 -131.5 51t-51.5 125t51.5 125t131.5 51q78 0 129 -51t51 -125t-51 -125t-129 -51zM944 1579q-80 0 -130 50t-50 126t50 126t130 50t131 -51t51 -125t-51 -125t-131 -51zM115 0v1499h1194v-182q0 -88 -50.5 -136t-144.5 -48h-543v-199h592v-172
q0 -94 -50 -144.5t-144 -50.5h-398v-200h539q86 0 142.5 -56.5t56.5 -142.5v-168h-1194z" />
    <glyph glyph-name="Igrave" unicode="&#xcc;" horiz-adv-x="745" 
d="M387 1585q-143 0 -252 88l-250 201l217 82q168 63 273 -82l200 -289h-188zM352 0q-106 0 -165.5 59.5t-59.5 161.5v1278h258q86 0 142.5 -56.5t56.5 -142.5v-1300h-232z" />
    <glyph glyph-name="Iacute" unicode="&#xcd;" horiz-adv-x="745" 
d="M127 1585l201 289q104 145 272 82l217 -82l-250 -201q-109 -88 -252 -88h-188zM352 0q-106 0 -165.5 59.5t-59.5 161.5v1278h258q86 0 142.5 -56.5t56.5 -142.5v-1300h-232z" />
    <glyph glyph-name="Icircumflex" unicode="&#xce;" horiz-adv-x="745" 
d="M-92 1583l336 389h219l336 -389h-250q-92 0 -141 72l-56 82l-55 -82q-49 -72 -141 -72h-248zM352 0q-106 0 -165.5 59.5t-59.5 161.5v1278h258q86 0 142.5 -56.5t56.5 -142.5v-1300h-232z" />
    <glyph glyph-name="Idieresis" unicode="&#xcf;" horiz-adv-x="745" 
d="M127 1579q-80 0 -131 51t-51 125t51 125t131 51q78 0 129 -51t51 -125t-51 -125t-129 -51zM579.5 1579q-79.5 0 -130 50t-50.5 126t50.5 126t130 50t131 -51t51.5 -125t-51.5 -125t-131 -51zM352 0q-106 0 -165.5 59.5t-59.5 161.5v1278h258q86 0 142.5 -56.5
t56.5 -142.5v-1300h-232z" />
    <glyph glyph-name="Eth" unicode="&#xd0;" horiz-adv-x="1708" 
d="M182 0v559h-153v191q0 188 153 188v561h635q346 0 561 -206t215 -543q0 -340 -214 -545t-562 -205h-635zM641 367h158q57 0 113.5 20.5t107.5 63.5t83 119.5t32 177.5q0 195 -104.5 291t-231.5 96h-158v-197h225v-152q0 -227 -225 -227v-192z" />
    <glyph glyph-name="Ntilde" unicode="&#xd1;" horiz-adv-x="1667" 
d="M1012 1585q-76 0 -174.5 48t-139.5 48q-37 0 -61 -10q-18 -8 -45 -23.5t-40 -21.5t-41 -11t-48 7l-101 39q27 106 94.5 185t164.5 79q80 0 162.5 -46t146.5 -46q43 0 61 6q20 6 48 23.5t46.5 28t51 9t71.5 -21.5l78 -41q-86 -252 -274 -252zM119 0v1499h170l749 -682v473
q0 90 59.5 149.5t149.5 59.5h250v-1499h-172l-747 674v-465q0 -90 -59.5 -149.5t-149.5 -59.5h-250z" />
    <glyph glyph-name="Ograve" unicode="&#xd2;" horiz-adv-x="1740" 
d="M887 1585q-143 0 -252 88l-250 201l217 82q168 63 272 -82l201 -289h-188zM858 -25q-354 0 -578.5 224.5t-224.5 550t224.5 550t578.5 224.5q352 0 576.5 -224.5t224.5 -550t-224.5 -550t-576.5 -224.5zM858 360q158 0 250 110t92 280q0 164 -91 277.5t-251 113.5
q-162 0 -253 -111.5t-91 -279.5t91 -279t253 -111z" />
    <glyph glyph-name="Oacute" unicode="&#xd3;" horiz-adv-x="1740" 
d="M610 1585l201 289q104 145 272 82l217 -82l-249 -201q-109 -88 -252 -88h-189zM858 -25q-354 0 -578.5 224.5t-224.5 550t224.5 550t578.5 224.5q352 0 576.5 -224.5t224.5 -550t-224.5 -550t-576.5 -224.5zM858 360q158 0 250 110t92 280q0 164 -91 277.5t-251 113.5
q-162 0 -253 -111.5t-91 -279.5t91 -279t253 -111z" />
    <glyph glyph-name="Ocircumflex" unicode="&#xd4;" horiz-adv-x="1740" 
d="M412 1583l336 389h219l336 -389h-250q-92 0 -142 72l-55 82l-55 -82q-49 -72 -142 -72h-247zM858 -25q-354 0 -578.5 224.5t-224.5 550t224.5 550t578.5 224.5q352 0 576.5 -224.5t224.5 -550t-224.5 -550t-576.5 -224.5zM858 360q158 0 250 110t92 280q0 164 -91 277.5
t-251 113.5q-162 0 -253 -111.5t-91 -279.5t91 -279t253 -111z" />
    <glyph glyph-name="Otilde" unicode="&#xd5;" horiz-adv-x="1740" 
d="M1053 1589q-76 0 -174.5 48.5t-139.5 48.5q-37 0 -61 -11q-18 -8 -45 -23.5t-40 -21.5t-41 -11t-48 7l-101 39q27 106 94.5 185t164.5 79q80 0 162.5 -46t146.5 -46q43 0 61 6q20 6 48 23.5t46.5 28t51 9.5t71.5 -22l78 -41q-86 -252 -274 -252zM858 -25
q-354 0 -578.5 224.5t-224.5 550t224.5 550t578.5 224.5q352 0 576.5 -224.5t224.5 -550t-224.5 -550t-576.5 -224.5zM858 360q158 0 250 110t92 280q0 164 -91 277.5t-251 113.5q-162 0 -253 -111.5t-91 -279.5t91 -279t253 -111z" />
    <glyph glyph-name="Odieresis" unicode="&#xd6;" horiz-adv-x="1740" 
d="M633 1579q-80 0 -131 51t-51 125t51 125t131 51q78 0 129 -51t51 -125t-51 -125t-129 -51zM1085 1579q-78 0 -129 50t-51 126t51.5 126t128.5 50q80 0 131.5 -51t51.5 -125t-51.5 -125t-131.5 -51zM858 -25q-354 0 -578.5 224.5t-224.5 550t224.5 550t578.5 224.5
q352 0 576.5 -224.5t224.5 -550t-224.5 -550t-576.5 -224.5zM858 360q158 0 250 110t92 280q0 164 -91 277.5t-251 113.5q-162 0 -253 -111.5t-91 -279.5t91 -279t253 -111z" />
    <glyph glyph-name="multiply" unicode="&#xd7;" horiz-adv-x="1069" 
d="M762 256l-238 238l-102 -99q-145 -137 -287 4l-149 148l243 227l-100 96q-150 143 2 287l148 139l239 -245l125 127q123 125 270 -17l152 -147l-250 -238l98 -94q150 -143 -2 -287z" />
    <glyph glyph-name="Oslash" unicode="&#xd8;" horiz-adv-x="1761" 
d="M877 -25q-197 0 -377 93q-51 -57 -129 -56.5t-144 60.5l-90 80l109 122q-170 209 -170 476q0 326 224 550t577 224q207 0 391 -101q55 61 135 63.5t147 -59.5l86 -77l-120 -136q164 -209 163 -464q0 -326 -224 -550.5t-578 -224.5zM551 618l446 502q-57 20 -120 21
q-152 0 -247 -115t-95 -276q0 -66 16 -132zM877 360q162 0 253 111t91 279q0 53 -15 116l-434 -491q46 -15 105 -15z" />
    <glyph glyph-name="Ugrave" unicode="&#xd9;" horiz-adv-x="1650" 
d="M842 1585q-143 0 -252 88l-250 201l217 82q168 63 272 -82l201 -289h-188zM801 -23q-307 0 -494.5 176.5t-187.5 469.5v876h260q86 0 142.5 -56.5t56.5 -142.5v-692q0 -127 71.5 -187.5t151.5 -60.5t152.5 60.5t72.5 187.5v692q0 86 56.5 142.5t142.5 56.5h256v-876
q0 -295 -184.5 -470.5t-495.5 -175.5z" />
    <glyph glyph-name="Uacute" unicode="&#xda;" horiz-adv-x="1650" 
d="M512 1585l201 289q104 145 272 82l217 -82l-250 -201q-109 -88 -252 -88h-188zM801 -23q-307 0 -494.5 176.5t-187.5 469.5v876h260q86 0 142.5 -56.5t56.5 -142.5v-692q0 -127 71.5 -187.5t151.5 -60.5t152.5 60.5t72.5 187.5v692q0 86 56.5 142.5t142.5 56.5h256v-876
q0 -295 -184.5 -470.5t-495.5 -175.5z" />
    <glyph glyph-name="Ucircumflex" unicode="&#xdb;" horiz-adv-x="1650" 
d="M354 1583l336 389h219l336 -389h-250q-92 0 -141 72l-55 82l-56 -82q-49 -72 -141 -72h-248zM801 -23q-307 0 -494.5 176.5t-187.5 469.5v876h260q86 0 142.5 -56.5t56.5 -142.5v-692q0 -127 71.5 -187.5t151.5 -60.5t152.5 60.5t72.5 187.5v692q0 86 56.5 142.5
t142.5 56.5h256v-876q0 -295 -184.5 -470.5t-495.5 -175.5z" />
    <glyph glyph-name="Udieresis" unicode="&#xdc;" horiz-adv-x="1650" 
d="M578 1579q-80 0 -131.5 51t-51.5 125t51.5 125t131.5 51q78 0 129 -51t51 -125t-51 -125t-129 -51zM1030 1579q-80 0 -130 50t-50 126t50 126t130 50t131 -51t51 -125t-51 -125t-131 -51zM801 -23q-307 0 -494.5 176.5t-187.5 469.5v876h260q86 0 142.5 -56.5
t56.5 -142.5v-692q0 -127 71.5 -187.5t151.5 -60.5t152.5 60.5t72.5 187.5v692q0 86 56.5 142.5t142.5 56.5h256v-876q0 -295 -184.5 -470.5t-495.5 -175.5z" />
    <glyph glyph-name="Yacute" unicode="&#xdd;" horiz-adv-x="1511" 
d="M418 1581l200 289q104 145 273 82l217 -82l-250 -201q-109 -88 -252 -88h-188zM492 0v571l-570 928h375q145 0 213 -125l217 -397l213 395q68 127 213 127h383l-582 -928v-571h-462z" />
    <glyph glyph-name="Thorn" unicode="&#xde;" horiz-adv-x="1486" 
d="M346 0q-111 0 -169 58.5t-58 168.5v1272h229q111 0 169 -52t58 -151h246q242 0 410 -162.5t168 -396.5q0 -242 -160 -388t-461 -146h-200v-203h-232zM578 559h192q84 0 129 47t45 131t-46 138.5t-128 54.5h-195z" />
    <glyph glyph-name="germandbls" unicode="&#xdf;" horiz-adv-x="2842" 
d="M741 -25q-223 0 -391 67t-317 198l108 151q47 66 125 76t160 -31q170 -80 307 -80q76 0 119 25t43 65q0 14 -3 25.5t-10.5 21t-14.5 16.5t-22.5 13t-25.5 10.5t-31.5 9.5t-35 8t-40 7t-40.5 8q-4 0 -62.5 11.5t-77 15.5t-76 19.5t-82 25.5t-74.5 32.5t-74.5 45
t-59.5 56.5t-51.5 71t-29.5 87t-13 105q0 137 57 236.5t151.5 151t196 75t209.5 23.5q379 0 637 -230l-111 -147q-100 -137 -278 -62q-135 55 -258 56q-57 0 -101.5 -19.5t-44.5 -62.5q0 -35 31 -58.5t66 -33t90 -17.5q281 -43 385 -86q236 -98 250 -352q2 -18 2 -37
q0 -244 -166 -370t-447 -126zM2163 -25q-223 0 -391 67t-318 198l109 151q47 66 124.5 76t159.5 -31q170 -80 307 -80q76 0 119 25t43 65q0 14 -3 25.5t-10 21t-14.5 16.5t-22.5 13t-25.5 10.5t-32 9.5t-34.5 8t-40 7t-41 8q-4 0 -62.5 11.5t-77 15.5t-75.5 19.5t-81.5 25.5
t-75 32.5t-75 45t-59.5 56.5t-51 71t-29.5 87t-13.5 105q0 137 57.5 236.5t151.5 151t195.5 75t209.5 23.5q379 0 637 -230l-110 -147q-100 -137 -279 -62q-135 55 -258 56q-57 0 -101 -19.5t-44 -62.5q0 -35 30.5 -58.5t65.5 -33t90 -17.5q281 -43 385 -86
q236 -96 250 -348q2 -20 2 -41q0 -244 -165.5 -370t-446.5 -126z" />
    <glyph glyph-name="agrave" unicode="&#xe0;" 
d="M793 1585q-143 0 -252 88l-250 201l217 82q168 63 272 -82l201 -289h-188zM-53 0l794 1499h136l794 -1499h-352q-154 0 -219 137l-37 76h-508l-37 -76q-66 -137 -219 -137h-352zM686 530h246l-123 299z" />
    <glyph glyph-name="aacute" unicode="&#xe1;" 
d="M623 1581l200 289q104 145 273 82l217 -82l-250 -201q-109 -88 -252 -88h-188zM-53 0l794 1499h136l794 -1499h-352q-154 0 -219 137l-37 76h-508l-37 -76q-66 -137 -219 -137h-352zM686 530h246l-123 299z" />
    <glyph glyph-name="acircumflex" unicode="&#xe2;" 
d="M365 1587l335 389h220l335 -389h-249q-92 0 -142 72l-55 82l-55 -82q-49 -72 -142 -72h-247zM-53 0l794 1499h136l794 -1499h-352q-154 0 -219 137l-37 76h-508l-37 -76q-66 -137 -219 -137h-352zM686 530h246l-123 299z" />
    <glyph glyph-name="atilde" unicode="&#xe3;" 
d="M1016 1589q-76 0 -174.5 48.5t-139.5 48.5q-37 0 -61 -11q-18 -8 -45 -23.5t-40 -21.5t-41 -11t-48 7l-100 39q27 106 94 185t164 79q80 0 162.5 -46t146.5 -46q43 0 61 6q20 6 48 23.5t46.5 28t51.5 9.5t71 -22l78 -41q-86 -252 -274 -252zM-53 0l794 1499h136
l794 -1499h-352q-154 0 -219 137l-37 76h-508l-37 -76q-66 -137 -219 -137h-352zM686 530h246l-123 299z" />
    <glyph glyph-name="adieresis" unicode="&#xe4;" 
d="M584 1579q-80 0 -131.5 51t-51.5 125t51.5 125t131.5 51q78 0 129 -51t51 -125t-51 -125t-129 -51zM1036 1579q-78 0 -129 50t-51 126t51 126t129 50q80 0 131.5 -51t51.5 -125t-51.5 -125t-131.5 -51zM-53 0l794 1499h136l794 -1499h-352q-154 0 -219 137l-37 76h-508
l-37 -76q-66 -137 -219 -137h-352zM686 530h246l-123 299z" />
    <glyph glyph-name="aring" unicode="&#xe5;" 
d="M-53 0l758 1432q-74 29 -120 93t-46 146q0 104 76.5 180t189.5 76q106 0 184 -76.5t78 -179.5q0 -78 -44 -141.5t-114 -93.5l762 -1436h-317q-188 0 -269 166l-22 47h-508l-23 -47q-80 -166 -268 -166h-317zM807 1606q29 0 48 19.5t19 46t-19 46t-48 19.5t-48.5 -18.5
t-19.5 -47.5t19.5 -47t48.5 -18zM686 530h246l-123 299z" />
    <glyph glyph-name="ae" unicode="&#xe6;" horiz-adv-x="2125" 
d="M-61 0l837 1497h1227v-182q0 -88 -52.5 -135t-150.5 -47h-524v-199h647v-164q0 -98 -52 -150.5t-151 -52.5h-444v-200h524q98 0 150.5 -52.5t52.5 -150.5v-164h-1163v221h-312l-47 -82q-78 -139 -241 -139h-301zM707 584h133v250z" />
    <glyph glyph-name="ccedilla" unicode="&#xe7;" horiz-adv-x="1589" 
d="M1075 422q135 111 252 63l229 -94q-166 -381 -626 -414l-21 -55q74 -4 112 -61.5t34 -141.5q-12 -203 -252 -202q-61 0 -113.5 18.5t-75.5 36.5l-20 18q23 63 42 86t60 25q8 0 25.5 -3t26.5 -3q61 -2 61 45q0 51 -61 53q-18 0 -38 -5t-30 -9l-12 -6l-39 47l51 172
q-276 55 -455.5 262t-179.5 494q0 332 234.5 553t568.5 221q233 0 426.5 -114t286.5 -302l-242 -100q-78 -23 -127 -7.5t-117 68.5q-92 72 -227 72q-160 0 -252 -112t-92 -279q0 -170 97 -280t269 -110q125 1 205 64z" />
    <glyph glyph-name="egrave" unicode="&#xe8;" horiz-adv-x="1427" 
d="M772 1585q-143 0 -252 88l-250 201l217 82q168 63 273 -82l201 -289h-189zM115 0v1499h1194v-182q0 -88 -50.5 -136t-144.5 -48h-543v-199h592v-172q0 -94 -50 -144.5t-144 -50.5h-398v-200h539q86 0 142.5 -56.5t56.5 -142.5v-168h-1194z" />
    <glyph glyph-name="eacute" unicode="&#xe9;" horiz-adv-x="1427" 
d="M416 1585l200 289q104 145 273 82l217 -82l-250 -201q-109 -88 -252 -88h-188zM115 0v1499h1194v-182q0 -88 -50.5 -136t-144.5 -48h-543v-199h592v-172q0 -94 -50 -144.5t-144 -50.5h-398v-200h539q86 0 142.5 -56.5t56.5 -142.5v-168h-1194z" />
    <glyph glyph-name="ecircumflex" unicode="&#xea;" horiz-adv-x="1427" 
d="M264 1587l336 389h219l336 -389h-250q-92 0 -141 72l-55 82l-56 -82q-49 -72 -141 -72h-248zM115 0v1499h1194v-182q0 -88 -50.5 -136t-144.5 -48h-543v-199h592v-172q0 -94 -50 -144.5t-144 -50.5h-398v-200h539q86 0 142.5 -56.5t56.5 -142.5v-168h-1194z" />
    <glyph glyph-name="edieresis" unicode="&#xeb;" horiz-adv-x="1427" 
d="M492 1579q-80 0 -131.5 51t-51.5 125t51.5 125t131.5 51q78 0 129 -51t51 -125t-51 -125t-129 -51zM944 1579q-80 0 -130 50t-50 126t50 126t130 50t131 -51t51 -125t-51 -125t-131 -51zM115 0v1499h1194v-182q0 -88 -50.5 -136t-144.5 -48h-543v-199h592v-172
q0 -94 -50 -144.5t-144 -50.5h-398v-200h539q86 0 142.5 -56.5t56.5 -142.5v-168h-1194z" />
    <glyph glyph-name="igrave" unicode="&#xec;" horiz-adv-x="745" 
d="M387 1585q-143 0 -252 88l-250 201l217 82q168 63 273 -82l200 -289h-188zM352 0q-106 0 -165.5 59.5t-59.5 161.5v1278h258q86 0 142.5 -56.5t56.5 -142.5v-1300h-232z" />
    <glyph glyph-name="iacute" unicode="&#xed;" horiz-adv-x="745" 
d="M127 1585l201 289q104 145 272 82l217 -82l-250 -201q-109 -88 -252 -88h-188zM352 0q-106 0 -165.5 59.5t-59.5 161.5v1278h258q86 0 142.5 -56.5t56.5 -142.5v-1300h-232z" />
    <glyph glyph-name="icircumflex" unicode="&#xee;" horiz-adv-x="745" 
d="M-92 1583l336 389h219l336 -389h-250q-92 0 -141 72l-56 82l-55 -82q-49 -72 -141 -72h-248zM352 0q-106 0 -165.5 59.5t-59.5 161.5v1278h258q86 0 142.5 -56.5t56.5 -142.5v-1300h-232z" />
    <glyph glyph-name="idieresis" unicode="&#xef;" horiz-adv-x="745" 
d="M127 1579q-80 0 -131 51t-51 125t51 125t131 51q78 0 129 -51t51 -125t-51 -125t-129 -51zM579.5 1579q-79.5 0 -130 50t-50.5 126t50.5 126t130 50t131 -51t51.5 -125t-51.5 -125t-131 -51zM352 0q-106 0 -165.5 59.5t-59.5 161.5v1278h258q86 0 142.5 -56.5
t56.5 -142.5v-1300h-232z" />
    <glyph glyph-name="eth" unicode="&#xf0;" horiz-adv-x="1708" 
d="M182 0v559h-153v191q0 188 153 188v561h635q346 0 561 -206t215 -543q0 -340 -214 -545t-562 -205h-635zM641 367h158q57 0 113.5 20.5t107.5 63.5t83 119.5t32 177.5q0 195 -104.5 291t-231.5 96h-158v-197h225v-152q0 -227 -225 -227v-192z" />
    <glyph glyph-name="ntilde" unicode="&#xf1;" horiz-adv-x="1667" 
d="M1012 1585q-76 0 -174.5 48t-139.5 48q-37 0 -61 -10q-18 -8 -45 -23.5t-40 -21.5t-41 -11t-48 7l-101 39q27 106 94.5 185t164.5 79q80 0 162.5 -46t146.5 -46q43 0 61 6q20 6 48 23.5t46.5 28t51 9t71.5 -21.5l78 -41q-86 -252 -274 -252zM119 0v1499h170l749 -682v473
q0 90 59.5 149.5t149.5 59.5h250v-1499h-172l-747 674v-465q0 -90 -59.5 -149.5t-149.5 -59.5h-250z" />
    <glyph glyph-name="ograve" unicode="&#xf2;" horiz-adv-x="1740" 
d="M887 1585q-143 0 -252 88l-250 201l217 82q168 63 272 -82l201 -289h-188zM858 -25q-354 0 -578.5 224.5t-224.5 550t224.5 550t578.5 224.5q352 0 576.5 -224.5t224.5 -550t-224.5 -550t-576.5 -224.5zM858 360q158 0 250 110t92 280q0 164 -91 277.5t-251 113.5
q-162 0 -253 -111.5t-91 -279.5t91 -279t253 -111z" />
    <glyph glyph-name="oacute" unicode="&#xf3;" horiz-adv-x="1740" 
d="M610 1585l201 289q104 145 272 82l217 -82l-249 -201q-109 -88 -252 -88h-189zM858 -25q-354 0 -578.5 224.5t-224.5 550t224.5 550t578.5 224.5q352 0 576.5 -224.5t224.5 -550t-224.5 -550t-576.5 -224.5zM858 360q158 0 250 110t92 280q0 164 -91 277.5t-251 113.5
q-162 0 -253 -111.5t-91 -279.5t91 -279t253 -111z" />
    <glyph glyph-name="ocircumflex" unicode="&#xf4;" horiz-adv-x="1740" 
d="M412 1583l336 389h219l336 -389h-250q-92 0 -142 72l-55 82l-55 -82q-49 -72 -142 -72h-247zM858 -25q-354 0 -578.5 224.5t-224.5 550t224.5 550t578.5 224.5q352 0 576.5 -224.5t224.5 -550t-224.5 -550t-576.5 -224.5zM858 360q158 0 250 110t92 280q0 164 -91 277.5
t-251 113.5q-162 0 -253 -111.5t-91 -279.5t91 -279t253 -111z" />
    <glyph glyph-name="otilde" unicode="&#xf5;" horiz-adv-x="1740" 
d="M1053 1589q-76 0 -174.5 48.5t-139.5 48.5q-37 0 -61 -11q-18 -8 -45 -23.5t-40 -21.5t-41 -11t-48 7l-101 39q27 106 94.5 185t164.5 79q80 0 162.5 -46t146.5 -46q43 0 61 6q20 6 48 23.5t46.5 28t51 9.5t71.5 -22l78 -41q-86 -252 -274 -252zM858 -25
q-354 0 -578.5 224.5t-224.5 550t224.5 550t578.5 224.5q352 0 576.5 -224.5t224.5 -550t-224.5 -550t-576.5 -224.5zM858 360q158 0 250 110t92 280q0 164 -91 277.5t-251 113.5q-162 0 -253 -111.5t-91 -279.5t91 -279t253 -111z" />
    <glyph glyph-name="odieresis" unicode="&#xf6;" horiz-adv-x="1740" 
d="M633 1579q-80 0 -131 51t-51 125t51 125t131 51q78 0 129 -51t51 -125t-51 -125t-129 -51zM1085 1579q-78 0 -129 50t-51 126t51.5 126t128.5 50q80 0 131.5 -51t51.5 -125t-51.5 -125t-131.5 -51zM858 -25q-354 0 -578.5 224.5t-224.5 550t224.5 550t578.5 224.5
q352 0 576.5 -224.5t224.5 -550t-224.5 -550t-576.5 -224.5zM858 360q158 0 250 110t92 280q0 164 -91 277.5t-251 113.5q-162 0 -253 -111.5t-91 -279.5t91 -279t253 -111z" />
    <glyph glyph-name="divide" unicode="&#xf7;" horiz-adv-x="1296" 
d="M624.5 1032q-92.5 0 -152.5 58.5t-60 144.5q0 88 60 147.5t152.5 59.5t153 -59.5t60.5 -147.5q0 -86 -60.5 -144.5t-153 -58.5zM49 580v159q0 98 52.5 150.5t150.5 52.5h946v-160q0 -98 -52 -150t-151 -52h-946zM624.5 82q-92.5 0 -152.5 58.5t-60 146.5q0 86 60 144
t152.5 58t153 -58t60.5 -144q0 -88 -60.5 -146.5t-153 -58.5z" />
    <glyph glyph-name="oslash" unicode="&#xf8;" horiz-adv-x="1761" 
d="M877 -25q-197 0 -377 93q-51 -57 -129 -56.5t-144 60.5l-90 80l109 122q-170 209 -170 476q0 326 224 550t577 224q207 0 391 -101q55 61 135 63.5t147 -59.5l86 -77l-120 -136q164 -209 163 -464q0 -326 -224 -550.5t-578 -224.5zM551 618l446 502q-57 20 -120 21
q-152 0 -247 -115t-95 -276q0 -66 16 -132zM877 360q162 0 253 111t91 279q0 53 -15 116l-434 -491q46 -15 105 -15z" />
    <glyph glyph-name="ugrave" unicode="&#xf9;" horiz-adv-x="1650" 
d="M842 1585q-143 0 -252 88l-250 201l217 82q168 63 272 -82l201 -289h-188zM801 -23q-307 0 -494.5 176.5t-187.5 469.5v876h260q86 0 142.5 -56.5t56.5 -142.5v-692q0 -127 71.5 -187.5t151.5 -60.5t152.5 60.5t72.5 187.5v692q0 86 56.5 142.5t142.5 56.5h256v-876
q0 -295 -184.5 -470.5t-495.5 -175.5z" />
    <glyph glyph-name="uacute" unicode="&#xfa;" horiz-adv-x="1650" 
d="M512 1585l201 289q104 145 272 82l217 -82l-250 -201q-109 -88 -252 -88h-188zM801 -23q-307 0 -494.5 176.5t-187.5 469.5v876h260q86 0 142.5 -56.5t56.5 -142.5v-692q0 -127 71.5 -187.5t151.5 -60.5t152.5 60.5t72.5 187.5v692q0 86 56.5 142.5t142.5 56.5h256v-876
q0 -295 -184.5 -470.5t-495.5 -175.5z" />
    <glyph glyph-name="ucircumflex" unicode="&#xfb;" horiz-adv-x="1650" 
d="M354 1583l336 389h219l336 -389h-250q-92 0 -141 72l-55 82l-56 -82q-49 -72 -141 -72h-248zM801 -23q-307 0 -494.5 176.5t-187.5 469.5v876h260q86 0 142.5 -56.5t56.5 -142.5v-692q0 -127 71.5 -187.5t151.5 -60.5t152.5 60.5t72.5 187.5v692q0 86 56.5 142.5
t142.5 56.5h256v-876q0 -295 -184.5 -470.5t-495.5 -175.5z" />
    <glyph glyph-name="udieresis" unicode="&#xfc;" horiz-adv-x="1650" 
d="M578 1579q-80 0 -131.5 51t-51.5 125t51.5 125t131.5 51q78 0 129 -51t51 -125t-51 -125t-129 -51zM1030 1579q-80 0 -130 50t-50 126t50 126t130 50t131 -51t51 -125t-51 -125t-131 -51zM801 -23q-307 0 -494.5 176.5t-187.5 469.5v876h260q86 0 142.5 -56.5
t56.5 -142.5v-692q0 -127 71.5 -187.5t151.5 -60.5t152.5 60.5t72.5 187.5v692q0 86 56.5 142.5t142.5 56.5h256v-876q0 -295 -184.5 -470.5t-495.5 -175.5z" />
    <glyph glyph-name="yacute" unicode="&#xfd;" horiz-adv-x="1511" 
d="M418 1581l200 289q104 145 273 82l217 -82l-250 -201q-109 -88 -252 -88h-188zM492 0v571l-570 928h375q145 0 213 -125l217 -397l213 395q68 127 213 127h383l-582 -928v-571h-462z" />
    <glyph glyph-name="thorn" unicode="&#xfe;" horiz-adv-x="1486" 
d="M346 0q-111 0 -169 58.5t-58 168.5v1272h229q111 0 169 -52t58 -151h246q242 0 410 -162.5t168 -396.5q0 -242 -160 -388t-461 -146h-200v-203h-232zM578 559h192q84 0 129 47t45 131t-46 138.5t-128 54.5h-195z" />
    <glyph glyph-name="ydieresis" unicode="&#xff;" horiz-adv-x="1511" 
d="M502 1579q-80 0 -131.5 51t-51.5 125t51.5 125t131.5 51q78 0 129 -51t51 -125t-51 -125t-129 -51zM954 1579q-78 0 -129 50t-51 126t51.5 126t128.5 50q80 0 131.5 -51t51.5 -125t-51.5 -125t-131.5 -51zM492 0v571l-570 928h375q145 0 213 -125l217 -397l213 395
q68 127 213 127h383l-582 -928v-571h-462z" />
    <glyph glyph-name="Amacron" unicode="&#x100;" 
d="M436 1583v125q0 90 58.5 148.5t148.5 58.5h537v-125q0 -90 -59.5 -148.5t-147.5 -58.5h-537zM-53 0l794 1499h136l794 -1499h-352q-154 0 -219 137l-37 76h-508l-37 -76q-66 -137 -219 -137h-352zM686 530h246l-123 299z" />
    <glyph glyph-name="amacron" unicode="&#x101;" 
d="M436 1583v125q0 90 58.5 148.5t148.5 58.5h537v-125q0 -90 -59.5 -148.5t-147.5 -58.5h-537zM-53 0l794 1499h136l794 -1499h-352q-154 0 -219 137l-37 76h-508l-37 -76q-66 -137 -219 -137h-352zM686 530h246l-123 299z" />
    <glyph glyph-name="Abreve" unicode="&#x102;" 
d="M813 1579q-180 0 -297 118t-117 298h181q39 0 62.5 -9.5t31.5 -18.5t21.5 -35.5t21.5 -39.5q37 -59 100 -59q70 0 105 57q6 10 18 37t19.5 37t28 20.5t50.5 10.5h183q0 -186 -114 -301t-294 -115zM-53 0l794 1499h136l794 -1499h-352q-154 0 -219 137l-37 76h-508
l-37 -76q-66 -137 -219 -137h-352zM686 530h246l-123 299z" />
    <glyph glyph-name="abreve" unicode="&#x103;" 
d="M813 1579q-180 0 -297 118t-117 298h181q39 0 62.5 -9.5t31.5 -18.5t21.5 -35.5t21.5 -39.5q37 -59 100 -59q70 0 105 57q6 10 18 37t19.5 37t28 20.5t50.5 10.5h183q0 -186 -114 -301t-294 -115zM-53 0l794 1499h136l794 -1499h-352q-154 0 -219 137l-37 76h-508
l-37 -76q-66 -137 -219 -137h-352zM686 530h246l-123 299z" />
    <glyph glyph-name="Aogonek" unicode="&#x104;" 
d="M1694 -199l57 -125q-100 -82 -260 -75q-145 8 -235.5 93t-90.5 230q0 53 21 115q-55 35 -86 98l-37 76h-508l-37 -76q-66 -137 -219 -137h-352l794 1499h136l794 -1499h-137q-35 0 -61.5 -17.5t-18.5 -58.5q10 -55 102 -51q105 0 138 -72zM686 530h246l-123 299z" />
    <glyph glyph-name="aogonek" unicode="&#x105;" 
d="M1694 -199l57 -125q-100 -82 -260 -75q-145 8 -235.5 93t-90.5 230q0 53 21 115q-55 35 -86 98l-37 76h-508l-37 -76q-66 -137 -219 -137h-352l794 1499h136l794 -1499h-137q-35 0 -61.5 -17.5t-18.5 -58.5q10 -55 102 -51q105 0 138 -72zM686 530h246l-123 299z" />
    <glyph glyph-name="Cacute" unicode="&#x106;" horiz-adv-x="1609" 
d="M582 1581l200 289q104 145 273 82l217 -82l-250 -201q-109 -88 -252 -88h-188zM848 -25q-334 0 -568.5 220.5t-234.5 552t234.5 553t568.5 221.5q233 0 426.5 -114t286.5 -302l-242 -100q-78 -23 -127 -7.5t-117 68.5q-92 72 -227 72q-160 0 -252 -112t-92 -279
q0 -170 97 -280t269 -110q125 0 205 64q135 111 252 63l229 -94q-182 -416 -708 -416z" />
    <glyph glyph-name="cacute" unicode="&#x107;" horiz-adv-x="1609" 
d="M582 1581l200 289q104 145 273 82l217 -82l-250 -201q-109 -88 -252 -88h-188zM848 -25q-334 0 -568.5 220.5t-234.5 552t234.5 553t568.5 221.5q233 0 426.5 -114t286.5 -302l-242 -100q-78 -23 -127 -7.5t-117 68.5q-92 72 -227 72q-160 0 -252 -112t-92 -279
q0 -170 97 -280t269 -110q125 0 205 64q135 111 252 63l229 -94q-182 -416 -708 -416z" />
    <glyph glyph-name="Ccaron" unicode="&#x10c;" horiz-adv-x="1609" 
d="M711 1583l-336 389h250q92 0 141 -71l55 -82l56 82q49 72 141 71h248l-336 -389h-219zM848 -25q-334 0 -568.5 220.5t-234.5 552t234.5 553t568.5 221.5q233 0 426.5 -114t286.5 -302l-242 -100q-78 -23 -127 -7.5t-117 68.5q-92 72 -227 72q-160 0 -252 -112t-92 -279
q0 -170 97 -280t269 -110q125 0 205 64q135 111 252 63l229 -94q-182 -416 -708 -416z" />
    <glyph glyph-name="ccaron" unicode="&#x10d;" horiz-adv-x="1609" 
d="M711 1583l-336 389h250q92 0 141 -71l55 -82l56 82q49 72 141 71h248l-336 -389h-219zM848 -25q-334 0 -568.5 220.5t-234.5 552t234.5 553t568.5 221.5q233 0 426.5 -114t286.5 -302l-242 -100q-78 -23 -127 -7.5t-117 68.5q-92 72 -227 72q-160 0 -252 -112t-92 -279
q0 -170 97 -280t269 -110q125 0 205 64q135 111 252 63l229 -94q-182 -416 -708 -416z" />
    <glyph glyph-name="Dcaron" unicode="&#x10e;" horiz-adv-x="1646" 
d="M616 1583l-335 389h249q92 0 142 -71l55 -82l55 82q49 72 142 71h247l-335 -389h-220zM123 0v1499h635q346 0 561 -206t215 -543q0 -340 -214 -545t-562 -205h-635zM582 367h157q57 0 113.5 20.5t108 63.5t83 119.5t31.5 177.5q0 195 -104.5 291t-231.5 96h-157v-768z
" />
    <glyph glyph-name="dcaron" unicode="&#x10f;" horiz-adv-x="1646" 
d="M616 1583l-335 389h249q92 0 142 -71l55 -82l55 82q49 72 142 71h247l-335 -389h-220zM123 0v1499h635q346 0 561 -206t215 -543q0 -340 -214 -545t-562 -205h-635zM582 367h157q57 0 113.5 20.5t108 63.5t83 119.5t31.5 177.5q0 195 -104.5 291t-231.5 96h-157v-768z
" />
    <glyph glyph-name="Dcroat" unicode="&#x110;" horiz-adv-x="1708" 
d="M182 0v559h-153v191q0 188 153 188v561h635q346 0 561 -206t215 -543q0 -340 -214 -545t-562 -205h-635zM641 367h158q57 0 113.5 20.5t107.5 63.5t83 119.5t32 177.5q0 195 -104.5 291t-231.5 96h-158v-197h225v-152q0 -227 -225 -227v-192z" />
    <glyph glyph-name="dcroat" unicode="&#x111;" horiz-adv-x="1708" 
d="M182 0v559h-153v191q0 188 153 188v561h635q346 0 561 -206t215 -543q0 -340 -214 -545t-562 -205h-635zM641 367h158q57 0 113.5 20.5t107.5 63.5t83 119.5t32 177.5q0 195 -104.5 291t-231.5 96h-158v-197h225v-152q0 -227 -225 -227v-192z" />
    <glyph glyph-name="Emacron" unicode="&#x112;" horiz-adv-x="1427" 
d="M358 1583v125q0 90 58.5 148.5t148.5 58.5h537v-125q0 -90 -59.5 -148.5t-147.5 -58.5h-537zM115 0v1499h1194v-182q0 -88 -50.5 -136t-144.5 -48h-543v-199h592v-172q0 -94 -50 -144.5t-144 -50.5h-398v-200h539q86 0 142.5 -56.5t56.5 -142.5v-168h-1194z" />
    <glyph glyph-name="emacron" unicode="&#x113;" horiz-adv-x="1427" 
d="M358 1583v125q0 90 58.5 148.5t148.5 58.5h537v-125q0 -90 -59.5 -148.5t-147.5 -58.5h-537zM115 0v1499h1194v-182q0 -88 -50.5 -136t-144.5 -48h-543v-199h592v-172q0 -94 -50 -144.5t-144 -50.5h-398v-200h539q86 0 142.5 -56.5t56.5 -142.5v-168h-1194z" />
    <glyph glyph-name="Edotaccent" unicode="&#x116;" horiz-adv-x="1427" 
d="M710.5 1579q-94.5 0 -155.5 58.5t-61 148.5q0 88 62 148.5t154.5 60.5t154 -60.5t61.5 -148.5q0 -90 -60.5 -148.5t-155 -58.5zM115 0v1499h1194v-182q0 -88 -50.5 -136t-144.5 -48h-543v-199h592v-172q0 -94 -50 -144.5t-144 -50.5h-398v-200h539q86 0 142.5 -56.5
t56.5 -142.5v-168h-1194z" />
    <glyph glyph-name="edotaccent" unicode="&#x117;" horiz-adv-x="1427" 
d="M710.5 1579q-94.5 0 -155.5 58.5t-61 148.5q0 88 62 148.5t154.5 60.5t154 -60.5t61.5 -148.5q0 -90 -60.5 -148.5t-155 -58.5zM115 0v1499h1194v-182q0 -88 -50.5 -136t-144.5 -48h-543v-199h592v-172q0 -94 -50 -144.5t-144 -50.5h-398v-200h539q86 0 142.5 -56.5
t56.5 -142.5v-168h-1194z" />
    <glyph glyph-name="Eogonek" unicode="&#x118;" horiz-adv-x="1427" 
d="M1313 -199l57 -125q-100 -82 -260 -75q-145 8 -235.5 93t-90.5 230q0 35 11 76h-680v1499h1194v-182q0 -88 -50.5 -136t-144.5 -48h-543v-199h592v-172q0 -94 -50 -144.5t-144 -50.5h-398v-200h539q86 0 142.5 -56.5t56.5 -142.5v-168h-156q-35 0 -61.5 -17.5
t-18.5 -58.5q10 -55 103 -51q104 0 137 -72z" />
    <glyph glyph-name="eogonek" unicode="&#x119;" horiz-adv-x="1427" 
d="M1313 -199l57 -125q-100 -82 -260 -75q-145 8 -235.5 93t-90.5 230q0 35 11 76h-680v1499h1194v-182q0 -88 -50.5 -136t-144.5 -48h-543v-199h592v-172q0 -94 -50 -144.5t-144 -50.5h-398v-200h539q86 0 142.5 -56.5t56.5 -142.5v-168h-156q-35 0 -61.5 -17.5
t-18.5 -58.5q10 -55 103 -51q104 0 137 -72z" />
    <glyph glyph-name="Ecaron" unicode="&#x11a;" horiz-adv-x="1427" 
d="M596 1583l-336 389h250q92 0 141 -71l56 -82l55 82q49 72 141 71h248l-336 -389h-219zM115 0v1499h1194v-182q0 -88 -50.5 -136t-144.5 -48h-543v-199h592v-172q0 -94 -50 -144.5t-144 -50.5h-398v-200h539q86 0 142.5 -56.5t56.5 -142.5v-168h-1194z" />
    <glyph glyph-name="ecaron" unicode="&#x11b;" horiz-adv-x="1427" 
d="M596 1583l-336 389h250q92 0 141 -71l56 -82l55 82q49 72 141 71h248l-336 -389h-219zM115 0v1499h1194v-182q0 -88 -50.5 -136t-144.5 -48h-543v-199h592v-172q0 -94 -50 -144.5t-144 -50.5h-398v-200h539q86 0 142.5 -56.5t56.5 -142.5v-168h-1194z" />
    <glyph glyph-name="Gbreve" unicode="&#x11e;" horiz-adv-x="1734" 
d="M854 1579q-180 0 -297 118t-117 298h181q39 0 62.5 -9.5t31.5 -18.5t21.5 -35.5t21.5 -39.5q37 -59 100 -59q70 0 105 57q6 10 18 37t19.5 37t28 20.5t50.5 10.5h183q0 -186 -114 -301t-294 -115zM850 -25q-330 0 -565.5 227.5t-235.5 545t235.5 546t565.5 228.5
q223 0 408.5 -107.5t300.5 -294.5q-102 -57 -209 -110q-84 -33 -138.5 -21t-130.5 72q-98 76 -231 76q-156 0 -249 -112t-93 -277q0 -154 91 -265.5t237 -124.5q121 -10 219 40.5t121 148.5h-226q-94 0 -144 50t-50 144v113h864q12 -98 0 -225q-29 -281 -241 -467.5
t-529 -186.5z" />
    <glyph glyph-name="gbreve" unicode="&#x11f;" horiz-adv-x="1734" 
d="M854 1579q-180 0 -297 118t-117 298h181q39 0 62.5 -9.5t31.5 -18.5t21.5 -35.5t21.5 -39.5q37 -59 100 -59q70 0 105 57q6 10 18 37t19.5 37t28 20.5t50.5 10.5h183q0 -186 -114 -301t-294 -115zM850 -25q-330 0 -565.5 227.5t-235.5 545t235.5 546t565.5 228.5
q223 0 408.5 -107.5t300.5 -294.5q-102 -57 -209 -110q-84 -33 -138.5 -21t-130.5 72q-98 76 -231 76q-156 0 -249 -112t-93 -277q0 -154 91 -265.5t237 -124.5q121 -10 219 40.5t121 148.5h-226q-94 0 -144 50t-50 144v113h864q12 -98 0 -225q-29 -281 -241 -467.5
t-529 -186.5z" />
    <glyph glyph-name="uni0122" unicode="&#x122;" horiz-adv-x="1734" 
d="M850 -25q-330 0 -565.5 227.5t-235.5 545t235.5 546t565.5 228.5q223 0 408.5 -107.5t300.5 -294.5q-102 -57 -209 -110q-84 -33 -138.5 -21t-130.5 72q-98 76 -231 76q-156 0 -249 -112t-93 -277q0 -154 91 -265.5t237 -124.5q121 -10 219 40.5t121 148.5h-226
q-94 0 -144 50t-50 144v113h864q12 -98 0 -225q-29 -281 -241 -467.5t-529 -186.5zM750 -741l-15 18q-45 61 15 127q55 59 65 125q-63 2 -115.5 63.5t-54.5 124.5q-6 92 60.5 159t160.5 67q109 0 174.5 -71t65.5 -179q0 -125 -97 -253t-259 -181z" />
    <glyph glyph-name="uni0123" unicode="&#x123;" horiz-adv-x="1734" 
d="M850 -25q-330 0 -565.5 227.5t-235.5 545t235.5 546t565.5 228.5q223 0 408.5 -107.5t300.5 -294.5q-102 -57 -209 -110q-84 -33 -138.5 -21t-130.5 72q-98 76 -231 76q-156 0 -249 -112t-93 -277q0 -154 91 -265.5t237 -124.5q121 -10 219 40.5t121 148.5h-226
q-94 0 -144 50t-50 144v113h864q12 -98 0 -225q-29 -281 -241 -467.5t-529 -186.5zM750 -741l-15 18q-45 61 15 127q55 59 65 125q-63 2 -115.5 63.5t-54.5 124.5q-6 92 60.5 159t160.5 67q109 0 174.5 -71t65.5 -179q0 -125 -97 -253t-259 -181z" />
    <glyph glyph-name="Imacron" unicode="&#x12a;" horiz-adv-x="745" 
d="M-14 1583v125q0 90 58 148.5t149 58.5h536v-125q0 -90 -59.5 -148.5t-147.5 -58.5h-536zM352 0q-106 0 -165.5 59.5t-59.5 161.5v1278h258q86 0 142.5 -56.5t56.5 -142.5v-1300h-232z" />
    <glyph glyph-name="imacron" unicode="&#x12b;" horiz-adv-x="745" 
d="M-14 1583v125q0 90 58 148.5t149 58.5h536v-125q0 -90 -59.5 -148.5t-147.5 -58.5h-536zM352 0q-106 0 -165.5 59.5t-59.5 161.5v1278h258q86 0 142.5 -56.5t56.5 -142.5v-1300h-232z" />
    <glyph glyph-name="Iogonek" unicode="&#x12e;" horiz-adv-x="745" 
d="M645 -199l57 -125q-100 -82 -260 -75q-145 8 -235 93t-90 230q0 86 45 166q-35 53 -35 131v1278h258q86 0 142.5 -56.5t56.5 -142.5v-1300h-99q-35 0 -61.5 -17.5t-17.5 -58.5q10 -55 102 -51q104 0 137 -72z" />
    <glyph glyph-name="iogonek" unicode="&#x12f;" horiz-adv-x="745" 
d="M645 -199l57 -125q-100 -82 -260 -75q-145 8 -235 93t-90 230q0 86 45 166q-35 53 -35 131v1278h258q86 0 142.5 -56.5t56.5 -142.5v-1300h-99q-35 0 -61.5 -17.5t-17.5 -58.5q10 -55 102 -51q104 0 137 -72z" />
    <glyph glyph-name="Idotaccent" unicode="&#x130;" horiz-adv-x="745" 
d="M356.5 1579q-94.5 0 -156 58.5t-61.5 148.5q0 88 62.5 148.5t155 60.5t153.5 -60.5t61 -148.5q0 -90 -60 -148.5t-154.5 -58.5zM352 0q-106 0 -165.5 59.5t-59.5 161.5v1278h258q86 0 142.5 -56.5t56.5 -142.5v-1300h-232z" />
    <glyph glyph-name="dotlessi" unicode="&#x131;" horiz-adv-x="745" 
d="M352 0q-106 0 -165.5 59.5t-59.5 161.5v1278h258q86 0 142.5 -56.5t56.5 -142.5v-1300h-232z" />
    <glyph glyph-name="uni0136" unicode="&#x136;" horiz-adv-x="1540" 
d="M123 0v1499h260q86 0 142.5 -56.5t56.5 -142.5v-331l323 424q84 106 217 106h402l-621 -768l680 -731h-448q-123 0 -201 90l-352 399v-290q0 -86 -56.5 -142.5t-142.5 -56.5h-260zM668 -741l-15 18q-45 61 15 127q55 59 65 125q-63 2 -115.5 63.5t-54.5 124.5
q-6 92 60.5 159t160.5 67q109 0 174.5 -71t65.5 -179q0 -125 -97 -253t-259 -181z" />
    <glyph glyph-name="uni0137" unicode="&#x137;" horiz-adv-x="1540" 
d="M123 0v1499h260q86 0 142.5 -56.5t56.5 -142.5v-331l323 424q84 106 217 106h402l-621 -768l680 -731h-448q-123 0 -201 90l-352 399v-290q0 -86 -56.5 -142.5t-142.5 -56.5h-260zM668 -741l-15 18q-45 61 15 127q55 59 65 125q-63 2 -115.5 63.5t-54.5 124.5
q-6 92 60.5 159t160.5 67q109 0 174.5 -71t65.5 -179q0 -125 -97 -253t-259 -181z" />
    <glyph glyph-name="Lacute" unicode="&#x139;" horiz-adv-x="1294" 
d="M119 1583l200 289q104 145 273 82l217 -82l-250 -201q-109 -88 -252 -88h-188zM113 0v1499h262q86 0 142 -56.5t56 -142.5v-933h514q86 0 142.5 -56.5t56.5 -142.5v-168h-1173z" />
    <glyph glyph-name="lacute" unicode="&#x13a;" horiz-adv-x="1294" 
d="M119 1583l200 289q104 145 273 82l217 -82l-250 -201q-109 -88 -252 -88h-188zM113 0v1499h262q86 0 142 -56.5t56 -142.5v-933h514q86 0 142.5 -56.5t56.5 -142.5v-168h-1173z" />
    <glyph glyph-name="uni013B" unicode="&#x13b;" horiz-adv-x="1294" 
d="M113 0v1499h262q86 0 142 -56.5t56 -142.5v-933h514q86 0 142.5 -56.5t56.5 -142.5v-168h-1173zM569 -741l-14 18q-45 61 14 127q55 59 66 125q-63 2 -115.5 63.5t-54.5 124.5q-6 92 60.5 159t160.5 67q109 0 174.5 -71t65.5 -179q0 -125 -97.5 -253t-259.5 -181z" />
    <glyph glyph-name="uni013C" unicode="&#x13c;" horiz-adv-x="1294" 
d="M113 0v1499h262q86 0 142 -56.5t56 -142.5v-933h514q86 0 142.5 -56.5t56.5 -142.5v-168h-1173zM569 -741l-14 18q-45 61 14 127q55 59 66 125q-63 2 -115.5 63.5t-54.5 124.5q-6 92 60.5 159t160.5 67q109 0 174.5 -71t65.5 -179q0 -125 -97.5 -253t-259.5 -181z" />
    <glyph glyph-name="Lcaron" unicode="&#x13d;" horiz-adv-x="1294" 
d="M860 829l-14 19q-45 61 14 127q55 59 66 125q-63 2 -115.5 63.5t-54.5 124.5q-6 92 60.5 158.5t160.5 66.5q109 0 174.5 -70.5t65.5 -178.5q0 -125 -97.5 -253.5t-259.5 -181.5zM113 0v1499h262q86 0 142 -56.5t56 -142.5v-933h514q86 0 142.5 -56.5t56.5 -142.5v-168
h-1173z" />
    <glyph glyph-name="lcaron" unicode="&#x13e;" horiz-adv-x="1294" 
d="M860 829l-14 19q-45 61 14 127q55 59 66 125q-63 2 -115.5 63.5t-54.5 124.5q-6 92 60.5 158.5t160.5 66.5q109 0 174.5 -70.5t65.5 -178.5q0 -125 -97.5 -253.5t-259.5 -181.5zM113 0v1499h262q86 0 142 -56.5t56 -142.5v-933h514q86 0 142.5 -56.5t56.5 -142.5v-168
h-1173z" />
    <glyph glyph-name="Lslash" unicode="&#x141;" horiz-adv-x="1294" 
d="M113 0v299l-90 -47v356q0 92 90 142v749h233q111 0 169 -58.5t58 -168.5v-266l465 258v-275q0 -184 -159 -270l-306 -166v-186h486q111 0 169 -58.5t58 -169.5v-139h-1173z" />
    <glyph glyph-name="lslash" unicode="&#x142;" horiz-adv-x="1294" 
d="M113 0v299l-90 -47v356q0 92 90 142v749h233q111 0 169 -58.5t58 -168.5v-266l465 258v-275q0 -184 -159 -270l-306 -166v-186h486q111 0 169 -58.5t58 -169.5v-139h-1173z" />
    <glyph glyph-name="Nacute" unicode="&#x143;" horiz-adv-x="1667" 
d="M524 1585l201 289q104 145 272 82l217 -82l-249 -201q-109 -88 -252 -88h-189zM119 0v1499h170l749 -682v473q0 90 59.5 149.5t149.5 59.5h250v-1499h-172l-747 674v-465q0 -90 -59.5 -149.5t-149.5 -59.5h-250z" />
    <glyph glyph-name="nacute" unicode="&#x144;" horiz-adv-x="1667" 
d="M524 1585l201 289q104 145 272 82l217 -82l-249 -201q-109 -88 -252 -88h-189zM119 0v1499h170l749 -682v473q0 90 59.5 149.5t149.5 59.5h250v-1499h-172l-747 674v-465q0 -90 -59.5 -149.5t-149.5 -59.5h-250z" />
    <glyph glyph-name="uni0145" unicode="&#x145;" horiz-adv-x="1667" 
d="M119 0v1499h170l749 -682v473q0 90 59.5 149.5t149.5 59.5h250v-1499h-172l-747 674v-465q0 -90 -59.5 -149.5t-149.5 -59.5h-250zM733 -741l-14 18q-45 61 14 127q55 59 66 125q-63 2 -115.5 63.5t-54.5 124.5q-6 92 60.5 159t160.5 67q109 0 174.5 -71t65.5 -179
q0 -125 -97.5 -253t-259.5 -181z" />
    <glyph glyph-name="uni0146" unicode="&#x146;" horiz-adv-x="1667" 
d="M119 0v1499h170l749 -682v473q0 90 59.5 149.5t149.5 59.5h250v-1499h-172l-747 674v-465q0 -90 -59.5 -149.5t-149.5 -59.5h-250zM733 -741l-14 18q-45 61 14 127q55 59 66 125q-63 2 -115.5 63.5t-54.5 124.5q-6 92 60.5 159t160.5 67q109 0 174.5 -71t65.5 -179
q0 -125 -97.5 -253t-259.5 -181z" />
    <glyph glyph-name="Ncaron" unicode="&#x147;" horiz-adv-x="1667" 
d="M676 1583l-336 389h250q92 0 141 -71l55 -82l56 82q49 72 141 71h248l-336 -389h-219zM119 0v1499h170l749 -682v473q0 90 59.5 149.5t149.5 59.5h250v-1499h-172l-747 674v-465q0 -90 -59.5 -149.5t-149.5 -59.5h-250z" />
    <glyph glyph-name="ncaron" unicode="&#x148;" horiz-adv-x="1667" 
d="M676 1583l-336 389h250q92 0 141 -71l55 -82l56 82q49 72 141 71h248l-336 -389h-219zM119 0v1499h170l749 -682v473q0 90 59.5 149.5t149.5 59.5h250v-1499h-172l-747 674v-465q0 -90 -59.5 -149.5t-149.5 -59.5h-250z" />
    <glyph glyph-name="Omacron" unicode="&#x14c;" horiz-adv-x="1740" 
d="M485 1583v125q0 90 58.5 148.5t148.5 58.5h537v-125q0 -90 -59.5 -148.5t-147.5 -58.5h-537zM858 -25q-354 0 -578.5 224.5t-224.5 550t224.5 550t578.5 224.5q352 0 576.5 -224.5t224.5 -550t-224.5 -550t-576.5 -224.5zM858 360q158 0 250 110t92 280q0 164 -91 277.5
t-251 113.5q-162 0 -253 -111.5t-91 -279.5t91 -279t253 -111z" />
    <glyph glyph-name="omacron" unicode="&#x14d;" horiz-adv-x="1740" 
d="M485 1583v125q0 90 58.5 148.5t148.5 58.5h537v-125q0 -90 -59.5 -148.5t-147.5 -58.5h-537zM858 -25q-354 0 -578.5 224.5t-224.5 550t224.5 550t578.5 224.5q352 0 576.5 -224.5t224.5 -550t-224.5 -550t-576.5 -224.5zM858 360q158 0 250 110t92 280q0 164 -91 277.5
t-251 113.5q-162 0 -253 -111.5t-91 -279.5t91 -279t253 -111z" />
    <glyph glyph-name="Ohungarumlaut" unicode="&#x150;" horiz-adv-x="1740" 
d="M909 1583l219 289q41 53 99.5 70.5t120.5 -7.5l163 -63l-282 -248q-47 -41 -111 -41h-209zM446 1583l216 287q41 53 99 71.5t122 -6.5l164 -63l-285 -248q-47 -41 -109 -41h-207zM858 -25q-354 0 -578.5 224.5t-224.5 550t224.5 550t578.5 224.5q352 0 576.5 -224.5
t224.5 -550t-224.5 -550t-576.5 -224.5zM858 360q158 0 250 110t92 280q0 164 -91 277.5t-251 113.5q-162 0 -253 -111.5t-91 -279.5t91 -279t253 -111z" />
    <glyph glyph-name="ohungarumlaut" unicode="&#x151;" horiz-adv-x="1740" 
d="M909 1583l219 289q41 53 99.5 70.5t120.5 -7.5l163 -63l-282 -248q-47 -41 -111 -41h-209zM446 1583l216 287q41 53 99 71.5t122 -6.5l164 -63l-285 -248q-47 -41 -109 -41h-207zM858 -25q-354 0 -578.5 224.5t-224.5 550t224.5 550t578.5 224.5q352 0 576.5 -224.5
t224.5 -550t-224.5 -550t-576.5 -224.5zM858 360q158 0 250 110t92 280q0 164 -91 277.5t-251 113.5q-162 0 -253 -111.5t-91 -279.5t91 -279t253 -111z" />
    <glyph glyph-name="OE" unicode="&#x152;" horiz-adv-x="2363" 
d="M856 -25q-330 0 -565.5 227.5t-235.5 547.5q0 317 235.5 545.5t565.5 228.5q104 0 199 -25h1192v-158q0 -98 -52.5 -150t-150.5 -52h-535v-207h654v-158q0 -98 -52.5 -150.5t-150.5 -52.5h-451v-206h535q98 0 150.5 -52.5t52.5 -150.5v-162h-1194q-109 -25 -197 -25z
M856 367q115 0 197 57v651q-82 57 -197 58q-154 0 -248 -111t-94 -272q0 -168 94 -275.5t248 -107.5z" />
    <glyph glyph-name="oe" unicode="&#x153;" horiz-adv-x="2363" 
d="M856 -25q-330 0 -565.5 227.5t-235.5 547.5q0 317 235.5 545.5t565.5 228.5q104 0 199 -25h1192v-158q0 -98 -52.5 -150t-150.5 -52h-535v-207h654v-158q0 -98 -52.5 -150.5t-150.5 -52.5h-451v-206h535q98 0 150.5 -52.5t52.5 -150.5v-162h-1194q-109 -25 -197 -25z
M856 367q115 0 197 57v651q-82 57 -197 58q-154 0 -248 -111t-94 -272q0 -168 94 -275.5t248 -107.5z" />
    <glyph glyph-name="Racute" unicode="&#x154;" horiz-adv-x="1505" 
d="M428 1585l201 289q104 145 272 82l217 -82l-250 -201q-109 -88 -252 -88h-188zM123 0v1499h713q252 0 408.5 -152.5t156.5 -392.5q0 -152 -74 -269.5t-205 -154.5l396 -530h-367q-139 0 -221 113l-248 340h-102v-244q0 -90 -59.5 -149.5t-149.5 -59.5h-248zM580 809h196
q59 0 115.5 41t56.5 113q0 78 -46 124t-126 46h-196v-324z" />
    <glyph glyph-name="racute" unicode="&#x155;" horiz-adv-x="1505" 
d="M428 1585l201 289q104 145 272 82l217 -82l-250 -201q-109 -88 -252 -88h-188zM123 0v1499h713q252 0 408.5 -152.5t156.5 -392.5q0 -152 -74 -269.5t-205 -154.5l396 -530h-367q-139 0 -221 113l-248 340h-102v-244q0 -90 -59.5 -149.5t-149.5 -59.5h-248zM580 809h196
q59 0 115.5 41t56.5 113q0 78 -46 124t-126 46h-196v-324z" />
    <glyph glyph-name="uni0156" unicode="&#x156;" horiz-adv-x="1505" 
d="M123 0v1499h713q252 0 408.5 -152.5t156.5 -392.5q0 -152 -74 -269.5t-205 -154.5l396 -530h-367q-139 0 -221 113l-248 340h-102v-244q0 -90 -59.5 -149.5t-149.5 -59.5h-248zM580 809h196q59 0 115.5 41t56.5 113q0 78 -46 124t-126 46h-196v-324zM631 -741l-15 18
q-45 61 15 127q55 59 65 125q-63 2 -115.5 63.5t-54.5 124.5q-6 92 60.5 159t161.5 67q109 0 174 -71t65 -179q0 -125 -97 -253t-259 -181z" />
    <glyph glyph-name="uni0157" unicode="&#x157;" horiz-adv-x="1505" 
d="M123 0v1499h713q252 0 408.5 -152.5t156.5 -392.5q0 -152 -74 -269.5t-205 -154.5l396 -530h-367q-139 0 -221 113l-248 340h-102v-244q0 -90 -59.5 -149.5t-149.5 -59.5h-248zM580 809h196q59 0 115.5 41t56.5 113q0 78 -46 124t-126 46h-196v-324zM631 -741l-15 18
q-45 61 15 127q55 59 65 125q-63 2 -115.5 63.5t-54.5 124.5q-6 92 60.5 159t161.5 67q109 0 174 -71t65 -179q0 -125 -97 -253t-259 -181z" />
    <glyph glyph-name="Rcaron" unicode="&#x158;" horiz-adv-x="1505" 
d="M578 1583l-336 389h250q92 0 141 -71l55 -82l55 82q49 72 142 71h248l-336 -389h-219zM123 0v1499h713q252 0 408.5 -152.5t156.5 -392.5q0 -152 -74 -269.5t-205 -154.5l396 -530h-367q-139 0 -221 113l-248 340h-102v-244q0 -90 -59.5 -149.5t-149.5 -59.5h-248z
M580 809h196q59 0 115.5 41t56.5 113q0 78 -46 124t-126 46h-196v-324z" />
    <glyph glyph-name="rcaron" unicode="&#x159;" horiz-adv-x="1505" 
d="M578 1583l-336 389h250q92 0 141 -71l55 -82l55 82q49 72 142 71h248l-336 -389h-219zM123 0v1499h713q252 0 408.5 -152.5t156.5 -392.5q0 -152 -74 -269.5t-205 -154.5l396 -530h-367q-139 0 -221 113l-248 340h-102v-244q0 -90 -59.5 -149.5t-149.5 -59.5h-248z
M580 809h196q59 0 115.5 41t56.5 113q0 78 -46 124t-126 46h-196v-324z" />
    <glyph glyph-name="Sacute" unicode="&#x15a;" horiz-adv-x="1421" 
d="M438 1585l201 289q104 145 272 82l217 -82l-249 -201q-109 -88 -252 -88h-189zM741 -25q-223 0 -391 67t-317 198l108 151q47 66 125 76t160 -31q170 -80 307 -80q76 0 119 25t43 65q0 14 -3 25.5t-10.5 21t-14.5 16.5t-22.5 13t-25.5 10.5t-31.5 9.5t-35 8t-40 7
t-40.5 8q-4 0 -62.5 11.5t-77 15.5t-76 19.5t-82 25.5t-74.5 32.5t-74.5 45t-59.5 56.5t-51.5 71t-29.5 87t-13 105q0 137 57 236.5t151.5 151t196 75t209.5 23.5q379 0 637 -230l-111 -147q-100 -137 -278 -62q-135 55 -258 56q-57 0 -101.5 -19.5t-44.5 -62.5
q0 -35 31 -58.5t66 -33t90 -17.5q281 -43 385 -86q236 -98 250 -352q2 -18 2 -37q0 -244 -166 -370t-447 -126z" />
    <glyph glyph-name="sacute" unicode="&#x15b;" horiz-adv-x="1421" 
d="M438 1585l201 289q104 145 272 82l217 -82l-249 -201q-109 -88 -252 -88h-189zM741 -25q-223 0 -391 67t-317 198l108 151q47 66 125 76t160 -31q170 -80 307 -80q76 0 119 25t43 65q0 14 -3 25.5t-10.5 21t-14.5 16.5t-22.5 13t-25.5 10.5t-31.5 9.5t-35 8t-40 7
t-40.5 8q-4 0 -62.5 11.5t-77 15.5t-76 19.5t-82 25.5t-74.5 32.5t-74.5 45t-59.5 56.5t-51.5 71t-29.5 87t-13 105q0 137 57 236.5t151.5 151t196 75t209.5 23.5q379 0 637 -230l-111 -147q-100 -137 -278 -62q-135 55 -258 56q-57 0 -101.5 -19.5t-44.5 -62.5
q0 -35 31 -58.5t66 -33t90 -17.5q281 -43 385 -86q236 -98 250 -352q2 -18 2 -37q0 -244 -166 -370t-447 -126z" />
    <glyph glyph-name="Scedilla" unicode="&#x15e;" horiz-adv-x="1421" 
d="M1354 471q0 -219 -134.5 -343t-367.5 -146l-23 -62q74 -4 112 -61.5t34 -141.5q-12 -203 -252 -202q-61 0 -113.5 18t-72.5 37l-23 18q23 63 42 86t60 25q8 0 25.5 -3t26.5 -3q61 -4 61 45q0 51 -61 53q-18 0 -38 -5t-32 -11l-10 -4l-39 47l49 166q-311 35 -565 256
l108 151q47 66 125 76t160 -31q170 -80 307 -80q76 0 119 25t43 65q0 14 -3 25.5t-10.5 21t-14.5 16.5t-22.5 13t-25.5 10.5t-31.5 9.5t-35 8t-40 7t-40.5 8q-4 0 -62.5 11.5t-77 15.5t-76 19.5t-82 25.5t-74.5 32.5t-74.5 45t-59.5 56.5t-51.5 71t-29.5 87t-13 105
q0 137 57 236.5t151.5 151t196 75t209.5 23.5q379 0 637 -230l-111 -147q-100 -137 -278 -62q-135 55 -258 56q-57 0 -101.5 -19.5t-44.5 -62.5q0 -35 31 -58.5t66 -33t90 -17.5q281 -43 385 -86q236 -98 250 -352q2 -19 2 -37z" />
    <glyph glyph-name="scedilla" unicode="&#x15f;" horiz-adv-x="1421" 
d="M1354 471q0 -219 -134.5 -343t-367.5 -146l-23 -62q74 -4 112 -61.5t34 -141.5q-12 -203 -252 -202q-61 0 -113.5 18t-72.5 37l-23 18q23 63 42 86t60 25q8 0 25.5 -3t26.5 -3q61 -4 61 45q0 51 -61 53q-18 0 -38 -5t-32 -11l-10 -4l-39 47l49 166q-311 35 -565 256
l108 151q47 66 125 76t160 -31q170 -80 307 -80q76 0 119 25t43 65q0 14 -3 25.5t-10.5 21t-14.5 16.5t-22.5 13t-25.5 10.5t-31.5 9.5t-35 8t-40 7t-40.5 8q-4 0 -62.5 11.5t-77 15.5t-76 19.5t-82 25.5t-74.5 32.5t-74.5 45t-59.5 56.5t-51.5 71t-29.5 87t-13 105
q0 137 57 236.5t151.5 151t196 75t209.5 23.5q379 0 637 -230l-111 -147q-100 -137 -278 -62q-135 55 -258 56q-57 0 -101.5 -19.5t-44.5 -62.5q0 -35 31 -58.5t66 -33t90 -17.5q281 -43 385 -86q236 -98 250 -352q2 -19 2 -37z" />
    <glyph glyph-name="Scaron" unicode="&#x160;" horiz-adv-x="1421" 
d="M567 1585l-336 389h250q92 0 142 -71l55 -82l55 82q49 72 141 71h248l-336 -389h-219zM741 -25q-223 0 -391 67t-317 198l108 151q47 66 125 76t160 -31q170 -80 307 -80q76 0 119 25t43 65q0 14 -3 25.5t-10.5 21t-14.5 16.5t-22.5 13t-25.5 10.5t-31.5 9.5t-35 8t-40 7
t-40.5 8q-4 0 -62.5 11.5t-77 15.5t-76 19.5t-82 25.5t-74.5 32.5t-74.5 45t-59.5 56.5t-51.5 71t-29.5 87t-13 105q0 137 57 236.5t151.5 151t196 75t209.5 23.5q379 0 637 -230l-111 -147q-100 -137 -278 -62q-135 55 -258 56q-57 0 -101.5 -19.5t-44.5 -62.5
q0 -35 31 -58.5t66 -33t90 -17.5q281 -43 385 -86q236 -98 250 -352q2 -18 2 -37q0 -244 -166 -370t-447 -126z" />
    <glyph glyph-name="scaron" unicode="&#x161;" horiz-adv-x="1421" 
d="M567 1585l-336 389h250q92 0 142 -71l55 -82l55 82q49 72 141 71h248l-336 -389h-219zM741 -25q-223 0 -391 67t-317 198l108 151q47 66 125 76t160 -31q170 -80 307 -80q76 0 119 25t43 65q0 14 -3 25.5t-10.5 21t-14.5 16.5t-22.5 13t-25.5 10.5t-31.5 9.5t-35 8t-40 7
t-40.5 8q-4 0 -62.5 11.5t-77 15.5t-76 19.5t-82 25.5t-74.5 32.5t-74.5 45t-59.5 56.5t-51.5 71t-29.5 87t-13 105q0 137 57 236.5t151.5 151t196 75t209.5 23.5q379 0 637 -230l-111 -147q-100 -137 -278 -62q-135 55 -258 56q-57 0 -101.5 -19.5t-44.5 -62.5
q0 -35 31 -58.5t66 -33t90 -17.5q281 -43 385 -86q236 -98 250 -352q2 -18 2 -37q0 -244 -166 -370t-447 -126z" />
    <glyph glyph-name="uni0162" unicode="&#x162;" horiz-adv-x="1296" 
d="M430 0v1133h-389v167q0 86 56.5 142.5t142.5 56.5h1036v-168q0 -86 -56.5 -142t-142.5 -56h-190v-934q0 -86 -56.5 -142.5t-142.5 -56.5h-258zM545 -741l-15 18q-45 61 15 127q55 59 65 125q-63 2 -115.5 63.5t-54.5 124.5q-6 92 60.5 159t161.5 67q109 0 174 -71
t65 -179q0 -125 -97 -253t-259 -181z" />
    <glyph glyph-name="uni0163" unicode="&#x163;" horiz-adv-x="1296" 
d="M430 0v1133h-389v167q0 86 56.5 142.5t142.5 56.5h1036v-168q0 -86 -56.5 -142t-142.5 -56h-190v-934q0 -86 -56.5 -142.5t-142.5 -56.5h-258zM545 -741l-15 18q-45 61 15 127q55 59 65 125q-63 2 -115.5 63.5t-54.5 124.5q-6 92 60.5 159t161.5 67q109 0 174 -71
t65 -179q0 -125 -97 -253t-259 -181z" />
    <glyph glyph-name="Tcaron" unicode="&#x164;" horiz-adv-x="1296" 
d="M547 1583l-336 389h250q92 0 141 -71l55 -82l56 82q49 72 141 71h248l-336 -389h-219zM430 0v1133h-389v167q0 86 56.5 142.5t142.5 56.5h1036v-168q0 -86 -56.5 -142t-142.5 -56h-190v-934q0 -86 -56.5 -142.5t-142.5 -56.5h-258z" />
    <glyph glyph-name="tcaron" unicode="&#x165;" horiz-adv-x="1296" 
d="M547 1583l-336 389h250q92 0 141 -71l55 -82l56 82q49 72 141 71h248l-336 -389h-219zM430 0v1133h-389v167q0 86 56.5 142.5t142.5 56.5h1036v-168q0 -86 -56.5 -142t-142.5 -56h-190v-934q0 -86 -56.5 -142.5t-142.5 -56.5h-258z" />
    <glyph glyph-name="Umacron" unicode="&#x16a;" horiz-adv-x="1650" 
d="M428 1583v125q0 90 58.5 148.5t148.5 58.5h536v-125q0 -90 -59 -148.5t-147 -58.5h-537zM801 -23q-307 0 -494.5 176.5t-187.5 469.5v876h260q86 0 142.5 -56.5t56.5 -142.5v-692q0 -127 71.5 -187.5t151.5 -60.5t152.5 60.5t72.5 187.5v692q0 86 56.5 142.5t142.5 56.5
h256v-876q0 -295 -184.5 -470.5t-495.5 -175.5z" />
    <glyph glyph-name="umacron" unicode="&#x16b;" horiz-adv-x="1650" 
d="M428 1583v125q0 90 58.5 148.5t148.5 58.5h536v-125q0 -90 -59 -148.5t-147 -58.5h-537zM801 -23q-307 0 -494.5 176.5t-187.5 469.5v876h260q86 0 142.5 -56.5t56.5 -142.5v-692q0 -127 71.5 -187.5t151.5 -60.5t152.5 60.5t72.5 187.5v692q0 86 56.5 142.5t142.5 56.5
h256v-876q0 -295 -184.5 -470.5t-495.5 -175.5z" />
    <glyph glyph-name="Uring" unicode="&#x16e;" horiz-adv-x="1650" 
d="M799 1559q-113 0 -190 73.5t-77 182.5q0 104 77 180t190 76q106 0 184 -77t78 -179q0 -106 -78 -181t-184 -75zM800.5 1749q28.5 0 48 19.5t19.5 46t-19.5 46t-48 19.5t-48 -18.5t-19.5 -47t19.5 -47t48 -18.5zM801 -23q-307 0 -494.5 176.5t-187.5 469.5v876h260
q86 0 142.5 -56.5t56.5 -142.5v-692q0 -127 71.5 -187.5t151.5 -60.5t152.5 60.5t72.5 187.5v692q0 86 56.5 142.5t142.5 56.5h256v-876q0 -295 -184.5 -470.5t-495.5 -175.5z" />
    <glyph glyph-name="uring" unicode="&#x16f;" horiz-adv-x="1650" 
d="M799 1559q-113 0 -190 73.5t-77 182.5q0 104 77 180t190 76q106 0 184 -77t78 -179q0 -106 -78 -181t-184 -75zM800.5 1749q28.5 0 48 19.5t19.5 46t-19.5 46t-48 19.5t-48 -18.5t-19.5 -47t19.5 -47t48 -18.5zM801 -23q-307 0 -494.5 176.5t-187.5 469.5v876h260
q86 0 142.5 -56.5t56.5 -142.5v-692q0 -127 71.5 -187.5t151.5 -60.5t152.5 60.5t72.5 187.5v692q0 86 56.5 142.5t142.5 56.5h256v-876q0 -295 -184.5 -470.5t-495.5 -175.5z" />
    <glyph glyph-name="Uhungarumlaut" unicode="&#x170;" horiz-adv-x="1650" 
d="M799 1583l219 289q41 53 99.5 70.5t119.5 -7.5l164 -63l-283 -248q-47 -41 -110 -41h-209zM336 1583l215 287q41 53 99.5 71.5t121.5 -6.5l164 -63l-285 -248q-47 -41 -108 -41h-207zM801 -23q-307 0 -494.5 176.5t-187.5 469.5v876h260q86 0 142.5 -56.5t56.5 -142.5
v-692q0 -127 71.5 -187.5t151.5 -60.5t152.5 60.5t72.5 187.5v692q0 86 56.5 142.5t142.5 56.5h256v-876q0 -295 -184.5 -470.5t-495.5 -175.5z" />
    <glyph glyph-name="uhungarumlaut" unicode="&#x171;" horiz-adv-x="1650" 
d="M799 1583l219 289q41 53 99.5 70.5t119.5 -7.5l164 -63l-283 -248q-47 -41 -110 -41h-209zM336 1583l215 287q41 53 99.5 71.5t121.5 -6.5l164 -63l-285 -248q-47 -41 -108 -41h-207zM801 -23q-307 0 -494.5 176.5t-187.5 469.5v876h260q86 0 142.5 -56.5t56.5 -142.5
v-692q0 -127 71.5 -187.5t151.5 -60.5t152.5 60.5t72.5 187.5v692q0 86 56.5 142.5t142.5 56.5h256v-876q0 -295 -184.5 -470.5t-495.5 -175.5z" />
    <glyph glyph-name="Uogonek" unicode="&#x172;" horiz-adv-x="1650" 
d="M1225 1499h256v-876q0 -270 -159 -442.5t-429 -198.5h-2q-80 -10 -68 -76q10 -55 103 -51q104 0 137 -72l57 -125q-100 -82 -260 -76q-141 8 -233 87t-92 200q0 78 38 137q-211 59 -332.5 221t-121.5 396v876h260q86 0 142.5 -56.5t56.5 -142.5v-692q0 -127 71.5 -187.5
t151.5 -60.5t152.5 60.5t72.5 187.5v692q0 86 56.5 142.5t142.5 56.5z" />
    <glyph glyph-name="uogonek" unicode="&#x173;" horiz-adv-x="1650" 
d="M1225 1499h256v-876q0 -270 -159 -442.5t-429 -198.5h-2q-80 -10 -68 -76q10 -55 103 -51q104 0 137 -72l57 -125q-100 -82 -260 -76q-141 8 -233 87t-92 200q0 78 38 137q-211 59 -332.5 221t-121.5 396v876h260q86 0 142.5 -56.5t56.5 -142.5v-692q0 -127 71.5 -187.5
t151.5 -60.5t152.5 60.5t72.5 187.5v692q0 86 56.5 142.5t142.5 56.5z" />
    <glyph glyph-name="Ydieresis" unicode="&#x178;" horiz-adv-x="1511" 
d="M502 1579q-80 0 -131.5 51t-51.5 125t51.5 125t131.5 51q78 0 129 -51t51 -125t-51 -125t-129 -51zM954 1579q-78 0 -129 50t-51 126t51.5 126t128.5 50q80 0 131.5 -51t51.5 -125t-51.5 -125t-131.5 -51zM492 0v571l-570 928h375q145 0 213 -125l217 -397l213 395
q68 127 213 127h383l-582 -928v-571h-462z" />
    <glyph glyph-name="Zacute" unicode="&#x179;" horiz-adv-x="1488" 
d="M438 1585l201 289q104 145 272 82l217 -82l-249 -201q-109 -88 -252 -88h-189zM6 0v137l723 996h-467q-86 0 -142.5 56t-56.5 142v168h1348v-141l-702 -991h479q86 0 142 -56.5t56 -142.5v-168h-1380z" />
    <glyph glyph-name="zacute" unicode="&#x17a;" horiz-adv-x="1488" 
d="M438 1585l201 289q104 145 272 82l217 -82l-249 -201q-109 -88 -252 -88h-189zM6 0v137l723 996h-467q-86 0 -142.5 56t-56.5 142v168h1348v-141l-702 -991h479q86 0 142 -56.5t56 -142.5v-168h-1380z" />
    <glyph glyph-name="Zdotaccent" unicode="&#x17b;" horiz-adv-x="1488" 
d="M751.5 1579q-94.5 0 -155.5 58.5t-61 148.5q0 88 62 148.5t154.5 60.5t154 -60.5t61.5 -148.5q0 -90 -60.5 -148.5t-155 -58.5zM6 0v137l723 996h-467q-86 0 -142.5 56t-56.5 142v168h1348v-141l-702 -991h479q86 0 142 -56.5t56 -142.5v-168h-1380z" />
    <glyph glyph-name="zdotaccent" unicode="&#x17c;" horiz-adv-x="1488" 
d="M751.5 1579q-94.5 0 -155.5 58.5t-61 148.5q0 88 62 148.5t154.5 60.5t154 -60.5t61.5 -148.5q0 -90 -60.5 -148.5t-155 -58.5zM6 0v137l723 996h-467q-86 0 -142.5 56t-56.5 142v168h1348v-141l-702 -991h479q86 0 142 -56.5t56 -142.5v-168h-1380z" />
    <glyph glyph-name="Zcaron" unicode="&#x17d;" horiz-adv-x="1488" 
d="M627 1583l-336 389h250q92 0 141 -71l55 -82l56 82q49 72 141 71h248l-336 -389h-219zM6 0v137l723 996h-467q-86 0 -142.5 56t-56.5 142v168h1348v-141l-702 -991h479q86 0 142 -56.5t56 -142.5v-168h-1380z" />
    <glyph glyph-name="zcaron" unicode="&#x17e;" horiz-adv-x="1488" 
d="M627 1583l-336 389h250q92 0 141 -71l55 -82l56 82q49 72 141 71h248l-336 -389h-219zM6 0v137l723 996h-467q-86 0 -142.5 56t-56.5 142v168h1348v-141l-702 -991h479q86 0 142 -56.5t56 -142.5v-168h-1380z" />
    <glyph glyph-name="uni0218" unicode="&#x218;" horiz-adv-x="1421" 
d="M741 -25q-223 0 -391 67t-317 198l108 151q47 66 125 76t160 -31q170 -80 307 -80q76 0 119 25t43 65q0 14 -3 25.5t-10.5 21t-14.5 16.5t-22.5 13t-25.5 10.5t-31.5 9.5t-35 8t-40 7t-40.5 8q-4 0 -62.5 11.5t-77 15.5t-76 19.5t-82 25.5t-74.5 32.5t-74.5 45
t-59.5 56.5t-51.5 71t-29.5 87t-13 105q0 137 57 236.5t151.5 151t196 75t209.5 23.5q379 0 637 -230l-111 -147q-100 -137 -278 -62q-135 55 -258 56q-57 0 -101.5 -19.5t-44.5 -62.5q0 -35 31 -58.5t66 -33t90 -17.5q281 -43 385 -86q236 -98 250 -352q2 -18 2 -37
q0 -244 -166 -370t-447 -126zM590 -741l-15 18q-45 61 15 127q55 59 65 125q-63 2 -115.5 63.5t-54.5 124.5q-6 92 60.5 159t161.5 67q109 0 174 -71t65 -179q0 -125 -97 -253t-259 -181z" />
    <glyph glyph-name="uni0219" unicode="&#x219;" horiz-adv-x="1421" 
d="M741 -25q-223 0 -391 67t-317 198l108 151q47 66 125 76t160 -31q170 -80 307 -80q76 0 119 25t43 65q0 14 -3 25.5t-10.5 21t-14.5 16.5t-22.5 13t-25.5 10.5t-31.5 9.5t-35 8t-40 7t-40.5 8q-4 0 -62.5 11.5t-77 15.5t-76 19.5t-82 25.5t-74.5 32.5t-74.5 45
t-59.5 56.5t-51.5 71t-29.5 87t-13 105q0 137 57 236.5t151.5 151t196 75t209.5 23.5q379 0 637 -230l-111 -147q-100 -137 -278 -62q-135 55 -258 56q-57 0 -101.5 -19.5t-44.5 -62.5q0 -35 31 -58.5t66 -33t90 -17.5q281 -43 385 -86q236 -98 250 -352q2 -18 2 -37
q0 -244 -166 -370t-447 -126zM590 -741l-15 18q-45 61 15 127q55 59 65 125q-63 2 -115.5 63.5t-54.5 124.5q-6 92 60.5 159t161.5 67q109 0 174 -71t65 -179q0 -125 -97 -253t-259 -181z" />
    <glyph glyph-name="uni021A" unicode="&#x21a;" horiz-adv-x="1296" 
d="M430 0v1133h-389v167q0 86 56.5 142.5t142.5 56.5h1036v-168q0 -86 -56.5 -142t-142.5 -56h-190v-934q0 -86 -56.5 -142.5t-142.5 -56.5h-258zM545 -741l-15 18q-45 61 15 127q55 59 65 125q-63 2 -115.5 63.5t-54.5 124.5q-6 92 60.5 159t161.5 67q109 0 174 -71
t65 -179q0 -125 -97 -253t-259 -181z" />
    <glyph glyph-name="uni021B" unicode="&#x21b;" horiz-adv-x="1296" 
d="M430 0v1133h-389v167q0 86 56.5 142.5t142.5 56.5h1036v-168q0 -86 -56.5 -142t-142.5 -56h-190v-934q0 -86 -56.5 -142.5t-142.5 -56.5h-258zM545 -741l-15 18q-45 61 15 127q55 59 65 125q-63 2 -115.5 63.5t-54.5 124.5q-6 92 60.5 159t161.5 67q109 0 174 -71
t65 -179q0 -125 -97 -253t-259 -181z" />
    <glyph glyph-name="circumflex" unicode="&#x2c6;" horiz-adv-x="915" 
d="M-18 1493l335 389h220l335 -389h-249q-92 0 -142 72l-55 82l-55 -82q-49 -72 -142 -72h-247z" />
    <glyph glyph-name="caron" unicode="&#x2c7;" horiz-adv-x="915" 
d="M317 1491l-335 389h249q92 0 142 -72l55 -82l55 82q49 72 142 72h247l-335 -389h-220z" />
    <glyph glyph-name="breve" unicode="&#x2d8;" horiz-adv-x="878" 
d="M446.5 1493q-180.5 0 -297 118t-116.5 298h180q39 0 62.5 -9.5t31.5 -18.5t21.5 -35.5t21.5 -39.5q37 -59 101 -59q70 0 104 57q6 10 18.5 37t19.5 37t27.5 20.5t51.5 10.5h182q0 -186 -113.5 -301t-294 -115z" />
    <glyph glyph-name="dotaccent" unicode="&#x2d9;" horiz-adv-x="446" 
d="M223 1436q-94 0 -155.5 58t-61.5 148q0 88 62.5 148.5t154.5 60.5t153.5 -60t61.5 -149q0 -90 -60.5 -148t-154.5 -58z" />
    <glyph glyph-name="ring" unicode="&#x2da;" horiz-adv-x="536" 
d="M268 1337q-113 0 -189.5 74t-76.5 182q0 104 77 180t189 76q106 0 184 -76.5t78 -179.5q0 -106 -78 -181t-184 -75zM270.5 1528q28.5 0 48 19.5t19.5 46t-19.5 46t-48 19.5t-48 -18.5t-19.5 -47t19.5 -47t48 -18.5z" />
    <glyph glyph-name="ogonek" unicode="&#x2db;" horiz-adv-x="589" 
d="M365 -399q-145 8 -235.5 93t-90.5 230q0 154 131 271.5t285 115.5l14 -311h-61q-35 0 -62 -17.5t-18 -58.5q10 -55 102 -51q104 0 137 -72l58 -125q-100 -81 -260 -75z" />
    <glyph glyph-name="tilde" unicode="&#x2dc;" horiz-adv-x="899" 
d="M651 1475q-76 0 -174 48t-139 48q-37 0 -62 -10q-18 -8 -44.5 -23.5t-40 -22t-41 -11.5t-48.5 7l-100 39q27 106 94.5 185.5t163.5 79.5q80 0 163 -46.5t146 -46.5q43 0 62 7q20 6 48 23t46 27.5t51 9.5t72 -22l78 -41q-87 -251 -275 -251z" />
    <glyph glyph-name="hungarumlaut" unicode="&#x2dd;" horiz-adv-x="1013" 
d="M424 1518l219 288q41 53 99.5 70.5t119.5 -6.5l164 -64l-283 -247q-47 -41 -110 -41h-209zM-39 1518l215 286q41 53 99.5 71.5t121.5 -5.5l164 -64l-285 -247q-47 -41 -108 -41h-207z" />
    <glyph glyph-name="endash" unicode="&#x2013;" horiz-adv-x="1046" 
d="M29 590v162q0 98 52 150t150 52h762v-161q0 -98 -52 -150.5t-150 -52.5h-762z" />
    <glyph glyph-name="emdash" unicode="&#x2014;" horiz-adv-x="1562" 
d="M57 590v162q0 98 52.5 150t150.5 52h1198v-161q0 -98 -52 -150.5t-151 -52.5h-1198z" />
    <glyph glyph-name="quoteleft" unicode="&#x2018;" horiz-adv-x="579" 
d="M395 1548l15 -18q45 -61 -15 -127q-55 -59 -65 -125q63 -2 115.5 -63.5t54.5 -124.5q6 -92 -60.5 -159t-160.5 -67q-109 0 -174.5 71t-65.5 179q0 125 97 253t259 181z" />
    <glyph glyph-name="quoteright" unicode="&#x2019;" horiz-adv-x="503" 
d="M129 840l-14 18q-45 61 14 127q55 59 66 125q-63 2 -115.5 63.5t-54.5 124.5q-6 92 60.5 159t160.5 67q109 0 174 -71t65 -179q0 -125 -97 -253t-259 -181z" />
    <glyph glyph-name="quotesinglbase" unicode="&#x201a;" horiz-adv-x="538" 
d="M133 -272l-14 18q-45 61 14 127q55 59 66 125q-63 2 -115.5 63.5t-54.5 124.5q-6 92 60.5 159t160.5 67q109 0 174 -71t65 -179q0 -125 -97 -253t-259 -181z" />
    <glyph glyph-name="quotedblleft" unicode="&#x201c;" horiz-adv-x="1093" 
d="M395 1548l15 -18q45 -61 -15 -127q-55 -59 -65 -125q63 -2 115.5 -63.5t54.5 -124.5q6 -92 -60.5 -159t-160.5 -67q-109 0 -174.5 71t-65.5 179q0 125 97 253t259 181zM928 1548l14 -18q45 -61 -14 -127q-55 -59 -66 -125q63 -2 115.5 -63.5t54.5 -124.5
q6 -92 -60.5 -159t-160.5 -67q-109 0 -174.5 71t-65.5 179q0 125 97.5 253t259.5 181z" />
    <glyph glyph-name="quotedblright" unicode="&#x201d;" horiz-adv-x="1056" 
d="M141 840l-14 18q-45 61 14 127q55 59 66 125q-63 2 -115.5 63.5t-54.5 124.5q-6 92 60.5 159t160.5 67q109 0 174.5 -71t65.5 -179q0 -125 -97.5 -253t-259.5 -181zM674 840l-15 18q-45 61 15 127q55 59 65 125q-63 2 -115.5 63.5t-54.5 124.5q-6 92 60.5 159t161.5 67
q109 0 174 -71t65 -179q0 -125 -97 -253t-259 -181z" />
    <glyph glyph-name="quotedblbase" unicode="&#x201e;" horiz-adv-x="1044" 
d="M133 -272l-14 18q-45 61 14 127q55 59 66 125q-63 2 -115.5 63.5t-54.5 124.5q-6 92 60.5 159t160.5 67q109 0 174 -71t65 -179q0 -125 -97 -253t-259 -181zM672 -272l-15 18q-45 61 15 127q55 59 65 125q-63 2 -115.5 63.5t-54.5 124.5q-6 92 60.5 159t160.5 67
q109 0 174.5 -71t65.5 -179q0 -125 -97 -253t-259 -181z" />
    <glyph glyph-name="dagger" unicode="&#x2020;" horiz-adv-x="1024" 
d="M498 0q-98 0 -150.5 52t-52.5 151v628h-299v175q0 98 52 150t151 52h96v342h203q98 0 150 -52t52 -150v-140h304v-174q0 -98 -52.5 -150.5t-150.5 -52.5h-101v-831h-202z" />
    <glyph glyph-name="daggerdbl" unicode="&#x2021;" horiz-adv-x="1036" 
d="M520 0q-98 0 -150.5 52t-52.5 151v98h-301v193q0 98 52.5 150t150.5 52h98v160h-301v191q0 98 52.5 150t150.5 52h98v301h205q98 0 150.5 -52t52.5 -150v-99h303v-190q0 -98 -52 -150.5t-151 -52.5h-100v-160h303v-192q0 -98 -52 -150.5t-151 -52.5h-100v-301h-205z" />
    <glyph glyph-name="bullet" unicode="&#x2022;" horiz-adv-x="677" 
d="M340 565q-109 0 -187.5 76t-78.5 178.5t79.5 179t186 76.5t184.5 -76.5t78 -179t-78 -178.5t-184 -76z" />
    <glyph glyph-name="ellipsis" unicode="&#x2026;" horiz-adv-x="1613" 
d="M266 -14q-94 0 -159.5 63.5t-65.5 157.5q0 90 65.5 152.5t159.5 62.5q96 0 163 -62.5t67 -152.5q0 -94 -67 -157.5t-163 -63.5zM791 -14q-94 0 -160 63.5t-66 157.5q0 90 65.5 152.5t160.5 62.5q96 0 162.5 -62.5t66.5 -152.5q0 -94 -66.5 -157.5t-162.5 -63.5zM1321 -14
q-94 0 -159.5 63.5t-65.5 157.5q0 90 65.5 152.5t159.5 62.5q96 0 162.5 -62.5t66.5 -152.5q0 -94 -66.5 -157.5t-162.5 -63.5z" />
    <glyph glyph-name="perthousand" unicode="&#x2030;" horiz-adv-x="3020" 
d="M467 614q-182 0 -304 127t-122 319.5t122 320.5t304 128q188 0 310 -127t122 -321q0 -190 -124 -318.5t-308 -128.5zM537 -2l643 1356q70 150 237 149h182l-643 -1356q-70 -150 -237 -149h-182zM471 913q70 0 70 148q0 145 -70 145t-70 -145q0 -148 70 -148zM1663 -25
q-182 0 -304 127t-122 319.5t122 320.5t304 128q188 0 310 -127t122 -321q0 -190 -124 -318.5t-308 -128.5zM2566 -25q-182 0 -304 127t-122 319.5t122 320.5t304 128q188 0 310 -127t122 -321q0 -190 -124 -318.5t-308 -128.5zM1667 274q70 0 70 148q0 145 -70 145
t-70 -145q0 -148 70 -148zM2570.5 274q69.5 0 69.5 148q0 145 -69.5 145t-69.5 -145q0 -148 69.5 -148z" />
    <glyph glyph-name="guilsinglleft" unicode="&#x2039;" horiz-adv-x="778" 
d="M524 242q-160 0 -243 131l-250 379l252 383q84 131 243 131h224l-349 -510l357 -514h-234z" />
    <glyph glyph-name="guilsinglright" unicode="&#x203a;" horiz-adv-x="737" 
d="M4 242l358 514l-350 510h224q160 0 243 -131l252 -383l-250 -379q-84 -131 -243 -131h-234z" />
    <glyph glyph-name="fraction" unicode="&#x2044;" horiz-adv-x="1122" 
d="M-53 0l837 1366q82 135 244 135h180l-839 -1366q-82 -135 -244 -135h-178z" />
    <glyph glyph-name="Euro" unicode="&#x20ac;" horiz-adv-x="1425" 
d="M840 -27q-506 0 -637 504h-162v90q0 156 133 160v59h-133v88q0 158 158 158h28q20 121 125 264q164 223 488 224q106 0 201.5 -35t152.5 -77t108.5 -102.5t67.5 -88t31 -58.5l-158 -78q-51 -25 -96 -25.5t-78 14.5t-82 50q-66 45 -147 45q-59 0 -115.5 -37.5t-79.5 -95.5
h352v-88q0 -158 -157 -158h-271v-61h428v-90q0 -158 -157 -158h-230q18 -57 81 -103t149 -46q74 0 137 41q4 4 26.5 20.5t26.5 19.5t23.5 15t24.5 14t22.5 10.5t26 8.5t23.5 2t27.5 0t28 -6t31.5 -11l172 -69q-2 -12 -16.5 -48t-56.5 -98.5t-101 -117t-163.5 -95.5
t-231.5 -41z" />
    <glyph glyph-name="trademark" unicode="&#x2122;" horiz-adv-x="1748" 
d="M307 711v553h-221v125q0 113 113 112h571v-125q0 -113 -113 -112h-106v-441q0 -113 -113 -112h-131zM836 711v790h94l307 -364l301 364h98v-790h-135q-113 0 -112 112v133l-152 -204l-156 200v-129q0 -113 -112 -112h-133z" />
    <glyph glyph-name="notequal" unicode="&#x2260;" horiz-adv-x="1191" 
d="M125 133l86 176h-139v164q0 98 52 150.5t150 52.5h117l64 127h-383v164q0 98 52 150t150 52h361l45 93q45 90 209 90l168 -2l-88 -181h145v-163q0 -98 -52 -150.5t-151 -52.5h-123l-63 -127h389v-164q0 -98 -52 -150.5t-151 -52.5h-364l-15 -26q-72 -150 -237 -150h-170z
" />
    <glyph glyph-name="lessequal" unicode="&#x2264;" horiz-adv-x="1101" 
d="M1012 377l-963 397v303l963 400v-215q0 -174 -166 -230l-326 -106l326 -107q166 -55 166 -229v-213zM45 0v154q0 98 52.5 150t150.5 52h766v-178q0 -86 -52.5 -132t-150.5 -46h-766z" />
    <glyph glyph-name="greaterequal" unicode="&#x2265;" horiz-adv-x="1101" 
d="M47 377v213q0 174 166 229l326 107l-326 106q-166 55 -166 230v215l963 -400v-303zM45 0v154q0 98 52.5 150t150.5 52h766v-178q0 -86 -52.5 -132t-150.5 -46h-766z" />
    </font>
</defs>
</svg>
